solid OpenSCAD_Model
  facet normal 0 0 -1
    outer loop
      vertex -80 0 -3
      vertex -79.7815 2.07912 -3
      vertex -79.7815 -2.07912 -3
    endloop
  endfacet
  facet normal 0 0 -1
    outer loop
      vertex -79.7815 -2.07912 -3
      vertex -79.7815 2.07912 -3
      vertex -79.1355 4.06737 -3
    endloop
  endfacet
  facet normal 0 0 -1
    outer loop
      vertex -79.7815 -2.07912 -3
      vertex -79.1355 4.06737 -3
      vertex -78.0902 5.87785 -3
    endloop
  endfacet
  facet normal 0 0 -1
    outer loop
      vertex -79.7815 -2.07912 -3
      vertex -78.0902 5.87785 -3
      vertex -76.6913 7.43145 -3
    endloop
  endfacet
  facet normal 0 0 -1
    outer loop
      vertex -79.7815 -2.07912 -3
      vertex -76.6913 7.43145 -3
      vertex -75 8.66025 -3
    endloop
  endfacet
  facet normal 0 0 -1
    outer loop
      vertex -79.7815 -2.07912 -3
      vertex -75 8.66025 -3
      vertex -73.0902 9.51056 -3
    endloop
  endfacet
  facet normal 0 0 -1
    outer loop
      vertex -79.7815 -2.07912 -3
      vertex -73.0902 9.51056 -3
      vertex -71.0453 9.94522 -3
    endloop
  endfacet
  facet normal 0 0 -1
    outer loop
      vertex -74.2426 4.24264 -3
      vertex -71.0453 9.94522 -3
      vertex -68.9547 9.94522 -3
    endloop
  endfacet
  facet normal 0 0 -1
    outer loop
      vertex -65.7574 4.24264 -3
      vertex -61.9098 5.87785 -3
      vertex -60.8645 4.06737 -3
    endloop
  endfacet
  facet normal 0 0 -1
    outer loop
      vertex 65.7574 4.24264 -3
      vertex 76.6913 7.43145 -3
      vertex 78.0902 5.87785 -3
    endloop
  endfacet
  facet normal 0 0 -1
    outer loop
      vertex 65.7574 4.24264 -3
      vertex 78.0902 5.87785 -3
      vertex 74.2426 4.24264 -3
    endloop
  endfacet
  facet normal 0 0 -1
    outer loop
      vertex -65.7574 4.24264 -3
      vertex -63.3087 7.43145 -3
      vertex -61.9098 5.87785 -3
    endloop
  endfacet
  facet normal 0 0 -1
    outer loop
      vertex 65.7574 -4.24264 -3
      vertex 60.2102 2 -3
      vertex 65.7574 4.24264 -3
    endloop
  endfacet
  facet normal 0 0 -1
    outer loop
      vertex 65.7574 -4.24264 -3
      vertex 60.2102 -2 -3
      vertex 60.2102 2 -3
    endloop
  endfacet
  facet normal 0 0 -1
    outer loop
      vertex 60.2102 -2 -3
      vertex 48.8333 2 -3
      vertex 60.2102 2 -3
    endloop
  endfacet
  facet normal 0 0 -1
    outer loop
      vertex -48.8333 2 -3
      vertex -48.8333 37 -3
      vertex -45.8333 37 -3
    endloop
  endfacet
  facet normal 0 0 -1
    outer loop
      vertex -48.8333 2 -3
      vertex -45.8333 37 -3
      vertex -45.8333 17 -3
    endloop
  endfacet
  facet normal 0 0 -1
    outer loop
      vertex -48.8333 2 -3
      vertex -45.8333 17 -3
      vertex -40.8333 17 -3
    endloop
  endfacet
  facet normal 0 0 -1
    outer loop
      vertex 60.2102 -2 -3
      vertex 37.8333 2 -3
      vertex 48.8333 2 -3
    endloop
  endfacet
  facet normal 0 0 -1
    outer loop
      vertex -40.8333 17 -3
      vertex -40.8333 37 -3
      vertex -37.8333 37 -3
    endloop
  endfacet
  facet normal 0 0 -1
    outer loop
      vertex -40.8333 17 -3
      vertex -37.8333 37 -3
      vertex -37.8333 2 -3
    endloop
  endfacet
  facet normal 0 0 -1
    outer loop
      vertex -40.8333 17 -3
      vertex -37.8333 2 -3
      vertex -48.8333 2 -3
    endloop
  endfacet
  facet normal 0 0 -1
    outer loop
      vertex 60.2102 -2 -3
      vertex 5.5 2 -3
      vertex 37.8333 2 -3
    endloop
  endfacet
  facet normal 0 0 -1
    outer loop
      vertex -5.5 2 -3
      vertex -5.5 37 -3
      vertex -2.5 37 -3
    endloop
  endfacet
  facet normal 0 0 -1
    outer loop
      vertex -5.5 2 -3
      vertex -2.5 37 -3
      vertex -2.5 17 -3
    endloop
  endfacet
  facet normal 0 0 -1
    outer loop
      vertex -5.5 2 -3
      vertex -2.5 17 -3
      vertex 2.5 17 -3
    endloop
  endfacet
  facet normal 0 0 -1
    outer loop
      vertex 60.2102 -2 -3
      vertex -5.5 2 -3
      vertex 5.5 2 -3
    endloop
  endfacet
  facet normal 0 0 -1
    outer loop
      vertex 2.5 17 -3
      vertex 2.5 37 -3
      vertex 5.5 37 -3
    endloop
  endfacet
  facet normal 0 0 -1
    outer loop
      vertex 2.5 17 -3
      vertex 5.5 37 -3
      vertex 5.5 2 -3
    endloop
  endfacet
  facet normal 0 0 -1
    outer loop
      vertex 2.5 17 -3
      vertex 5.5 2 -3
      vertex -5.5 2 -3
    endloop
  endfacet
  facet normal 0 0 -1
    outer loop
      vertex 60.2102 -2 -3
      vertex -37.8333 2 -3
      vertex -5.5 2 -3
    endloop
  endfacet
  facet normal 0 0 -1
    outer loop
      vertex 37.8333 2 -3
      vertex 37.8333 37 -3
      vertex 40.8333 37 -3
    endloop
  endfacet
  facet normal 0 0 -1
    outer loop
      vertex 37.8333 2 -3
      vertex 40.8333 37 -3
      vertex 40.8333 17 -3
    endloop
  endfacet
  facet normal 0 0 -1
    outer loop
      vertex 37.8333 2 -3
      vertex 40.8333 17 -3
      vertex 45.8333 17 -3
    endloop
  endfacet
  facet normal 0 0 -1
    outer loop
      vertex 60.2102 -2 -3
      vertex -48.8333 2 -3
      vertex -37.8333 2 -3
    endloop
  endfacet
  facet normal 0 0 -1
    outer loop
      vertex 45.8333 17 -3
      vertex 45.8333 37 -3
      vertex 48.8333 37 -3
    endloop
  endfacet
  facet normal 0 0 -1
    outer loop
      vertex 45.8333 17 -3
      vertex 48.8333 37 -3
      vertex 48.8333 2 -3
    endloop
  endfacet
  facet normal 0 0 -1
    outer loop
      vertex 45.8333 17 -3
      vertex 48.8333 2 -3
      vertex 37.8333 2 -3
    endloop
  endfacet
  facet normal 0 0 -1
    outer loop
      vertex 60.2102 -2 -3
      vertex -60.2102 2 -3
      vertex -48.8333 2 -3
    endloop
  endfacet
  facet normal 0 0 -1
    outer loop
      vertex 60.2102 2 -3
      vertex 60.2185 2.07912 -3
      vertex 60.8645 4.06737 -3
    endloop
  endfacet
  facet normal 0 0 -1
    outer loop
      vertex 60.2102 2 -3
      vertex 60.8645 4.06737 -3
      vertex 61.9098 5.87785 -3
    endloop
  endfacet
  facet normal 0 0 -1
    outer loop
      vertex 60.2102 2 -3
      vertex 61.9098 5.87785 -3
      vertex 63.3087 7.43145 -3
    endloop
  endfacet
  facet normal 0 0 -1
    outer loop
      vertex 60.2102 2 -3
      vertex 63.3087 7.43145 -3
      vertex 65 8.66025 -3
    endloop
  endfacet
  facet normal 0 0 -1
    outer loop
      vertex 60.2102 2 -3
      vertex 65 8.66025 -3
      vertex 66.9098 9.51056 -3
    endloop
  endfacet
  facet normal 0 0 -1
    outer loop
      vertex 60.2102 2 -3
      vertex 66.9098 9.51056 -3
      vertex 68.9547 9.94522 -3
    endloop
  endfacet
  facet normal 0 0 -1
    outer loop
      vertex 60.2102 2 -3
      vertex 68.9547 9.94522 -3
      vertex 71.0453 9.94522 -3
    endloop
  endfacet
  facet normal 0 0 -1
    outer loop
      vertex 60.2102 2 -3
      vertex 71.0453 9.94522 -3
      vertex 73.0902 9.51056 -3
    endloop
  endfacet
  facet normal 0 0 -1
    outer loop
      vertex 60.2102 2 -3
      vertex 73.0902 9.51056 -3
      vertex 75 8.66025 -3
    endloop
  endfacet
  facet normal 0 0 -1
    outer loop
      vertex 65.7574 4.24264 -3
      vertex 75 8.66025 -3
      vertex 76.6913 7.43145 -3
    endloop
  endfacet
  facet normal 0 0 -1
    outer loop
      vertex 65.7574 -4.24264 -3
      vertex 60.2185 -2.07912 -3
      vertex 60.2102 -2 -3
    endloop
  endfacet
  facet normal 0 0 -1
    outer loop
      vertex 74.2426 4.24264 -3
      vertex 78.0902 5.87785 -3
      vertex 79.1355 4.06737 -3
    endloop
  endfacet
  facet normal 0 0 -1
    outer loop
      vertex 60.2102 -2 -3
      vertex 48.8333 -2 -3
      vertex -60.2102 2 -3
    endloop
  endfacet
  facet normal 0 0 -1
    outer loop
      vertex 48.8333 -2 -3
      vertex 37.8333 -2 -3
      vertex -60.2102 2 -3
    endloop
  endfacet
  facet normal 0 0 -1
    outer loop
      vertex 74.2426 4.24264 -3
      vertex 79.1355 -4.06737 -3
      vertex 74.2426 -4.24264 -3
    endloop
  endfacet
  facet normal 0 0 -1
    outer loop
      vertex 74.2426 4.24264 -3
      vertex 80 0 -3
      vertex 79.7815 -2.07912 -3
    endloop
  endfacet
  facet normal 0 0 -1
    outer loop
      vertex 74.2426 -4.24264 -3
      vertex 79.1355 -4.06737 -3
      vertex 78.0902 -5.87785 -3
    endloop
  endfacet
  facet normal 0 0 -1
    outer loop
      vertex 61.9098 -5.87785 -3
      vertex 78.0902 -5.87785 -3
      vertex 76.6913 -7.43145 -3
    endloop
  endfacet
  facet normal 0 0 -1
    outer loop
      vertex 63.3087 -7.43145 -3
      vertex 76.6913 -7.43145 -3
      vertex 75 -8.66025 -3
    endloop
  endfacet
  facet normal 0 0 -1
    outer loop
      vertex 65 -8.66025 -3
      vertex 75 -8.66025 -3
      vertex 73.0902 -9.51056 -3
    endloop
  endfacet
  facet normal 0 0 -1
    outer loop
      vertex 66.9098 -9.51056 -3
      vertex 73.0902 -9.51056 -3
      vertex 71.0453 -9.94522 -3
    endloop
  endfacet
  facet normal 0 0 -1
    outer loop
      vertex -48.8333 -2 -3
      vertex -45.8333 -37 -3
      vertex -48.8333 -37 -3
    endloop
  endfacet
  facet normal 0 0 -1
    outer loop
      vertex 65 -8.66025 -3
      vertex 73.0902 -9.51056 -3
      vertex 66.9098 -9.51056 -3
    endloop
  endfacet
  facet normal 0 0 -1
    outer loop
      vertex 63.3087 -7.43145 -3
      vertex 75 -8.66025 -3
      vertex 65 -8.66025 -3
    endloop
  endfacet
  facet normal 0 0 -1
    outer loop
      vertex -65.7574 4.24264 -3
      vertex -60.2102 -2 -3
      vertex -60.2185 -2.07912 -3
    endloop
  endfacet
  facet normal 0 0 -1
    outer loop
      vertex 61.9098 -5.87785 -3
      vertex 76.6913 -7.43145 -3
      vertex 63.3087 -7.43145 -3
    endloop
  endfacet
  facet normal 0 0 -1
    outer loop
      vertex -74.2426 4.24264 -3
      vertex -63.3087 7.43145 -3
      vertex -65.7574 4.24264 -3
    endloop
  endfacet
  facet normal 0 0 -1
    outer loop
      vertex 60.8645 -4.06737 -3
      vertex 78.0902 -5.87785 -3
      vertex 61.9098 -5.87785 -3
    endloop
  endfacet
  facet normal 0 0 -1
    outer loop
      vertex 74.2426 4.24264 -3
      vertex 79.7815 2.07912 -3
      vertex 80 0 -3
    endloop
  endfacet
  facet normal 0 0 -1
    outer loop
      vertex 74.2426 4.24264 -3
      vertex 79.7815 -2.07912 -3
      vertex 79.1355 -4.06737 -3
    endloop
  endfacet
  facet normal 0 0 -1
    outer loop
      vertex -65.7574 4.24264 -3
      vertex -60.2185 -2.07912 -3
      vertex -60.8645 -4.06737 -3
    endloop
  endfacet
  facet normal 0 0 -1
    outer loop
      vertex -65.7574 4.24264 -3
      vertex -60.2102 2 -3
      vertex -60.2102 -2 -3
    endloop
  endfacet
  facet normal 0 0 -1
    outer loop
      vertex 45.8333 -17 -3
      vertex 48.8333 -37 -3
      vertex 45.8333 -37 -3
    endloop
  endfacet
  facet normal 0 0 -1
    outer loop
      vertex -73.0902 -9.51056 -3
      vertex -79.7815 -2.07912 -3
      vertex -71.0453 -9.94522 -3
    endloop
  endfacet
  facet normal 0 0 -1
    outer loop
      vertex 37.8333 -2 -3
      vertex 45.8333 -17 -3
      vertex 40.8333 -17 -3
    endloop
  endfacet
  facet normal 0 0 -1
    outer loop
      vertex 37.8333 -2 -3
      vertex 48.8333 -2 -3
      vertex 45.8333 -17 -3
    endloop
  endfacet
  facet normal 0 0 -1
    outer loop
      vertex 2.5 -17 -3
      vertex 5.5 -37 -3
      vertex 2.5 -37 -3
    endloop
  endfacet
  facet normal 0 0 -1
    outer loop
      vertex 5.5 -37 -3
      vertex 2.5 -17 -3
      vertex 5.5 -2 -3
    endloop
  endfacet
  facet normal 0 0 -1
    outer loop
      vertex -74.2426 4.24264 -3
      vertex -65 8.66025 -3
      vertex -63.3087 7.43145 -3
    endloop
  endfacet
  facet normal 0 0 -1
    outer loop
      vertex -5.5 -2 -3
      vertex 5.5 -2 -3
      vertex 2.5 -17 -3
    endloop
  endfacet
  facet normal 0 0 -1
    outer loop
      vertex -66.9098 -9.51056 -3
      vertex -79.7815 -2.07912 -3
      vertex -65 -8.66025 -3
    endloop
  endfacet
  facet normal 0 0 -1
    outer loop
      vertex -65 -8.66025 -3
      vertex -79.7815 -2.07912 -3
      vertex -74.2426 -4.24264 -3
    endloop
  endfacet
  facet normal 0 0 -1
    outer loop
      vertex -40.8333 -17 -3
      vertex -37.8333 -37 -3
      vertex -40.8333 -37 -3
    endloop
  endfacet
  facet normal 0 0 -1
    outer loop
      vertex -5.5 -2 -3
      vertex -2.5 -17 -3
      vertex -2.5 -37 -3
    endloop
  endfacet
  facet normal 0 0 -1
    outer loop
      vertex -5.5 -2 -3
      vertex 2.5 -17 -3
      vertex -2.5 -17 -3
    endloop
  endfacet
  facet normal 0 0 -1
    outer loop
      vertex -65 -8.66025 -3
      vertex -74.2426 -4.24264 -3
      vertex -63.3087 -7.43145 -3
    endloop
  endfacet
  facet normal 0 0 -1
    outer loop
      vertex -48.8333 -2 -3
      vertex -37.8333 -2 -3
      vertex -40.8333 -17 -3
    endloop
  endfacet
  facet normal 0 0 -1
    outer loop
      vertex 37.8333 -2 -3
      vertex 5.5 -2 -3
      vertex -60.2102 2 -3
    endloop
  endfacet
  facet normal 0 0 -1
    outer loop
      vertex -65.7574 4.24264 -3
      vertex -60.8645 -4.06737 -3
      vertex -65.7574 -4.24264 -3
    endloop
  endfacet
  facet normal 0 0 -1
    outer loop
      vertex -61.9098 -5.87785 -3
      vertex -65.7574 -4.24264 -3
      vertex -60.8645 -4.06737 -3
    endloop
  endfacet
  facet normal 0 0 -1
    outer loop
      vertex 37.8333 -2 -3
      vertex 40.8333 -17 -3
      vertex 40.8333 -37 -3
    endloop
  endfacet
  facet normal 0 0 -1
    outer loop
      vertex -37.8333 -37 -3
      vertex -40.8333 -17 -3
      vertex -37.8333 -2 -3
    endloop
  endfacet
  facet normal 0 0 -1
    outer loop
      vertex -5.5 -2 -3
      vertex -2.5 -37 -3
      vertex -5.5 -37 -3
    endloop
  endfacet
  facet normal 0 0 -1
    outer loop
      vertex -48.8333 -2 -3
      vertex -45.8333 -17 -3
      vertex -45.8333 -37 -3
    endloop
  endfacet
  facet normal 0 0 -1
    outer loop
      vertex -79.7815 -2.07912 -3
      vertex -66.9098 -9.51056 -3
      vertex -68.9547 -9.94522 -3
    endloop
  endfacet
  facet normal 0 0 -1
    outer loop
      vertex -48.8333 -2 -3
      vertex -40.8333 -17 -3
      vertex -45.8333 -17 -3
    endloop
  endfacet
  facet normal 0 0 -1
    outer loop
      vertex -5.5 -2 -3
      vertex -37.8333 -2 -3
      vertex -60.2102 2 -3
    endloop
  endfacet
  facet normal 0 0 -1
    outer loop
      vertex 5.5 -2 -3
      vertex -5.5 -2 -3
      vertex -60.2102 2 -3
    endloop
  endfacet
  facet normal 0 0 -1
    outer loop
      vertex -74.2426 4.24264 -3
      vertex -66.9098 9.51056 -3
      vertex -65 8.66025 -3
    endloop
  endfacet
  facet normal 0 0 -1
    outer loop
      vertex -74.2426 4.24264 -3
      vertex -68.9547 9.94522 -3
      vertex -66.9098 9.51056 -3
    endloop
  endfacet
  facet normal 0 0 -1
    outer loop
      vertex -79.7815 -2.07912 -3
      vertex -75 -8.66025 -3
      vertex -76.6913 -7.43145 -3
    endloop
  endfacet
  facet normal 0 0 -1
    outer loop
      vertex -79.7815 -2.07912 -3
      vertex -76.6913 -7.43145 -3
      vertex -78.0902 -5.87785 -3
    endloop
  endfacet
  facet normal 0 0 -1
    outer loop
      vertex -79.7815 -2.07912 -3
      vertex -78.0902 -5.87785 -3
      vertex -79.1355 -4.06737 -3
    endloop
  endfacet
  facet normal 0 0 -1
    outer loop
      vertex -79.7815 -2.07912 -3
      vertex -71.0453 9.94522 -3
      vertex -74.2426 4.24264 -3
    endloop
  endfacet
  facet normal 0 0 -1
    outer loop
      vertex -74.2426 -4.24264 -3
      vertex -79.7815 -2.07912 -3
      vertex -74.2426 4.24264 -3
    endloop
  endfacet
  facet normal 0 0 -1
    outer loop
      vertex -37.8333 -2 -3
      vertex -48.8333 -2 -3
      vertex -60.2102 2 -3
    endloop
  endfacet
  facet normal 0 0 -1
    outer loop
      vertex 60.2102 2 -3
      vertex 75 8.66025 -3
      vertex 65.7574 4.24264 -3
    endloop
  endfacet
  facet normal 0 0 -1
    outer loop
      vertex 65.7574 -4.24264 -3
      vertex 60.8645 -4.06737 -3
      vertex 60.2185 -2.07912 -3
    endloop
  endfacet
  facet normal 0 0 -1
    outer loop
      vertex 74.2426 4.24264 -3
      vertex 79.1355 4.06737 -3
      vertex 79.7815 2.07912 -3
    endloop
  endfacet
  facet normal 0 0 -1
    outer loop
      vertex 60.8645 -4.06737 -3
      vertex 65.7574 -4.24264 -3
      vertex 78.0902 -5.87785 -3
    endloop
  endfacet
  facet normal 0 0 -1
    outer loop
      vertex 65.7574 -4.24264 -3
      vertex 74.2426 -4.24264 -3
      vertex 78.0902 -5.87785 -3
    endloop
  endfacet
  facet normal 0 0 -1
    outer loop
      vertex -48.8333 -2 -3
      vertex -60.2102 -2 -3
      vertex -60.2102 2 -3
    endloop
  endfacet
  facet normal 0 0 -1
    outer loop
      vertex 66.9098 -9.51056 -3
      vertex 71.0453 -9.94522 -3
      vertex 68.9547 -9.94522 -3
    endloop
  endfacet
  facet normal 0 0 -1
    outer loop
      vertex 37.8333 -2 -3
      vertex 40.8333 -37 -3
      vertex 37.8333 -37 -3
    endloop
  endfacet
  facet normal 0 0 -1
    outer loop
      vertex -71.0453 -9.94522 -3
      vertex -79.7815 -2.07912 -3
      vertex -68.9547 -9.94522 -3
    endloop
  endfacet
  facet normal 0 0 -1
    outer loop
      vertex -65.7574 -4.24264 -3
      vertex -63.3087 -7.43145 -3
      vertex -74.2426 -4.24264 -3
    endloop
  endfacet
  facet normal 0 0 -1
    outer loop
      vertex 48.8333 -37 -3
      vertex 45.8333 -17 -3
      vertex 48.8333 -2 -3
    endloop
  endfacet
  facet normal 0 0 -1
    outer loop
      vertex -75 -8.66025 -3
      vertex -79.7815 -2.07912 -3
      vertex -73.0902 -9.51056 -3
    endloop
  endfacet
  facet normal 0 0 -1
    outer loop
      vertex -65.7574 -4.24264 -3
      vertex -61.9098 -5.87785 -3
      vertex -63.3087 -7.43145 -3
    endloop
  endfacet
  facet normal 0 0 -1
    outer loop
      vertex -65.7574 4.24264 -3
      vertex -60.8645 4.06737 -3
      vertex -60.2185 2.07912 -3
    endloop
  endfacet
  facet normal 0 0 -1
    outer loop
      vertex -65.7574 4.24264 -3
      vertex -60.2185 2.07912 -3
      vertex -60.2102 2 -3
    endloop
  endfacet
  facet normal -0.994522 0.104528 0
    outer loop
      vertex -80 0 -3
      vertex -80 0 3
      vertex -79.7815 2.07912 -3
    endloop
  endfacet
  facet normal -0.994522 0.104528 0
    outer loop
      vertex -79.7815 2.07912 -3
      vertex -80 0 3
      vertex -79.7815 2.07912 3
    endloop
  endfacet
  facet normal -0.994522 -0.104528 0
    outer loop
      vertex -80 0 -3
      vertex -79.7815 -2.07912 -3
      vertex -80 0 3
    endloop
  endfacet
  facet normal -0.994522 -0.104528 0
    outer loop
      vertex -80 0 3
      vertex -79.7815 -2.07912 -3
      vertex -79.7815 -2.07912 3
    endloop
  endfacet
  facet normal -0.951057 -0.309017 0
    outer loop
      vertex -79.7815 -2.07912 -3
      vertex -79.1355 -4.06737 -3
      vertex -79.7815 -2.07912 3
    endloop
  endfacet
  facet normal -0.951057 -0.309017 0
    outer loop
      vertex -79.7815 -2.07912 3
      vertex -79.1355 -4.06737 -3
      vertex -79.1355 -4.06737 3
    endloop
  endfacet
  facet normal -0.866025 -0.5 0
    outer loop
      vertex -79.1355 -4.06737 -3
      vertex -78.0902 -5.87785 -3
      vertex -79.1355 -4.06737 3
    endloop
  endfacet
  facet normal -0.866025 -0.5 0
    outer loop
      vertex -79.1355 -4.06737 3
      vertex -78.0902 -5.87785 -3
      vertex -78.0902 -5.87785 3
    endloop
  endfacet
  facet normal -0.743145 -0.669131 0
    outer loop
      vertex -78.0902 -5.87785 -3
      vertex -76.6913 -7.43145 -3
      vertex -78.0902 -5.87785 3
    endloop
  endfacet
  facet normal -0.743145 -0.669131 0
    outer loop
      vertex -78.0902 -5.87785 3
      vertex -76.6913 -7.43145 -3
      vertex -76.6913 -7.43145 3
    endloop
  endfacet
  facet normal -0.587785 -0.809017 0
    outer loop
      vertex -76.6913 -7.43145 3
      vertex -76.6913 -7.43145 -3
      vertex -75 -8.66025 -3
    endloop
  endfacet
  facet normal -0.587785 -0.809017 0
    outer loop
      vertex -75 -8.66025 3
      vertex -76.6913 -7.43145 3
      vertex -75 -8.66025 -3
    endloop
  endfacet
  facet normal -0.406737 -0.913545 0
    outer loop
      vertex -75 -8.66025 3
      vertex -75 -8.66025 -3
      vertex -73.0902 -9.51056 -3
    endloop
  endfacet
  facet normal -0.406737 -0.913545 0
    outer loop
      vertex -73.0902 -9.51056 3
      vertex -75 -8.66025 3
      vertex -73.0902 -9.51056 -3
    endloop
  endfacet
  facet normal -0.207912 -0.978148 0
    outer loop
      vertex -73.0902 -9.51056 3
      vertex -73.0902 -9.51056 -3
      vertex -71.0453 -9.94522 -3
    endloop
  endfacet
  facet normal -0.207912 -0.978148 0
    outer loop
      vertex -71.0453 -9.94522 3
      vertex -73.0902 -9.51056 3
      vertex -71.0453 -9.94522 -3
    endloop
  endfacet
  facet normal 0 -1 0
    outer loop
      vertex -71.0453 -9.94522 3
      vertex -71.0453 -9.94522 -3
      vertex -68.9547 -9.94522 -3
    endloop
  endfacet
  facet normal 0 -1 0
    outer loop
      vertex -68.9547 -9.94522 3
      vertex -71.0453 -9.94522 3
      vertex -68.9547 -9.94522 -3
    endloop
  endfacet
  facet normal 0.207912 -0.978148 0
    outer loop
      vertex -68.9547 -9.94522 3
      vertex -68.9547 -9.94522 -3
      vertex -66.9098 -9.51056 -3
    endloop
  endfacet
  facet normal 0.207912 -0.978148 0
    outer loop
      vertex -66.9098 -9.51056 3
      vertex -68.9547 -9.94522 3
      vertex -66.9098 -9.51056 -3
    endloop
  endfacet
  facet normal 0.406737 -0.913545 0
    outer loop
      vertex -66.9098 -9.51056 3
      vertex -66.9098 -9.51056 -3
      vertex -65 -8.66025 -3
    endloop
  endfacet
  facet normal 0.406737 -0.913545 0
    outer loop
      vertex -65 -8.66025 3
      vertex -66.9098 -9.51056 3
      vertex -65 -8.66025 -3
    endloop
  endfacet
  facet normal 0.587785 -0.809017 0
    outer loop
      vertex -65 -8.66025 3
      vertex -65 -8.66025 -3
      vertex -63.3087 -7.43145 -3
    endloop
  endfacet
  facet normal 0.587785 -0.809017 0
    outer loop
      vertex -63.3087 -7.43145 3
      vertex -65 -8.66025 3
      vertex -63.3087 -7.43145 -3
    endloop
  endfacet
  facet normal 0.743145 -0.669131 0
    outer loop
      vertex -63.3087 -7.43145 3
      vertex -63.3087 -7.43145 -3
      vertex -61.9098 -5.87785 -3
    endloop
  endfacet
  facet normal 0.743145 -0.669131 0
    outer loop
      vertex -61.9098 -5.87785 3
      vertex -63.3087 -7.43145 3
      vertex -61.9098 -5.87785 -3
    endloop
  endfacet
  facet normal 0.866025 -0.5 0
    outer loop
      vertex -61.9098 -5.87785 3
      vertex -61.9098 -5.87785 -3
      vertex -60.8645 -4.06737 -3
    endloop
  endfacet
  facet normal 0.866025 -0.5 0
    outer loop
      vertex -60.8645 -4.06737 3
      vertex -61.9098 -5.87785 3
      vertex -60.8645 -4.06737 -3
    endloop
  endfacet
  facet normal 0.951057 -0.309017 0
    outer loop
      vertex -60.8645 -4.06737 3
      vertex -60.8645 -4.06737 -3
      vertex -60.2185 -2.07912 -3
    endloop
  endfacet
  facet normal 0.951057 -0.309017 0
    outer loop
      vertex -60.2185 -2.07912 3
      vertex -60.8645 -4.06737 3
      vertex -60.2185 -2.07912 -3
    endloop
  endfacet
  facet normal 0.994522 -0.104528 0
    outer loop
      vertex -60.2185 -2.07912 3
      vertex -60.2185 -2.07912 -3
      vertex -60.2102 -2 -3
    endloop
  endfacet
  facet normal 0.994522 -0.104528 0
    outer loop
      vertex -60.2102 -2 3
      vertex -60.2185 -2.07912 3
      vertex -60.2102 -2 -3
    endloop
  endfacet
  facet normal 0 -1 0
    outer loop
      vertex -60.2102 -2 3
      vertex -60.2102 -2 -3
      vertex -48.8333 -2 -3
    endloop
  endfacet
  facet normal 0 -1 0
    outer loop
      vertex -48.8333 -2 3
      vertex -60.2102 -2 3
      vertex -48.8333 -2 -3
    endloop
  endfacet
  facet normal -1 0 0
    outer loop
      vertex -48.8333 -37 -3
      vertex -48.8333 -37 6
      vertex -48.8333 -34 6
    endloop
  endfacet
  facet normal -1 0 0
    outer loop
      vertex -48.8333 -31 3
      vertex -48.8333 -2 3
      vertex -48.8333 -37 -3
    endloop
  endfacet
  facet normal -1 0 0
    outer loop
      vertex -48.8333 -31 3
      vertex -48.8333 -37 -3
      vertex -48.8333 -34 6
    endloop
  endfacet
  facet normal -1 0 0
    outer loop
      vertex -48.8333 -37 -3
      vertex -48.8333 -2 3
      vertex -48.8333 -2 -3
    endloop
  endfacet
  facet normal 0 0.707107 -0.707107
    outer loop
      vertex -37.8333 -37 -3
      vertex -48.8333 -37 -3
      vertex -45.8333 -37 -3
    endloop
  endfacet
  facet normal 0 0.707107 -0.707107
    outer loop
      vertex -37.8333 -37 -3
      vertex -45.8333 -37 -3
      vertex -40.8333 -37 -3
    endloop
  endfacet
  facet normal 1 0 0
    outer loop
      vertex -45.8333 -37 -3
      vertex -45.8333 -17 -3
      vertex -45.8333 -17 3
    endloop
  endfacet
  facet normal 1 0 0
    outer loop
      vertex -45.8333 -34 6
      vertex -45.8333 -37 -3
      vertex -45.8333 -31 3
    endloop
  endfacet
  facet normal 1 0 0
    outer loop
      vertex -45.8333 -31 3
      vertex -45.8333 -37 -3
      vertex -45.8333 -17 3
    endloop
  endfacet
  facet normal 1 0 0
    outer loop
      vertex -45.8333 -37 6
      vertex -45.8333 -37 -3
      vertex -45.8333 -34 6
    endloop
  endfacet
  facet normal 0 0 1
    outer loop
      vertex -45.8333 -37 -3
      vertex -48.8333 -37 -3
      vertex -37.8333 -37 -3
    endloop
  endfacet
  facet normal 0 0 1
    outer loop
      vertex -45.8333 -37 -3
      vertex -37.8333 -37 -3
      vertex -40.8333 -37 -3
    endloop
  endfacet
  facet normal 0 -1 0
    outer loop
      vertex -40.8333 -17 -3
      vertex -40.8333 -17 3
      vertex -45.8333 -17 3
    endloop
  endfacet
  facet normal 0 -1 0
    outer loop
      vertex -45.8333 -17 -3
      vertex -40.8333 -17 -3
      vertex -45.8333 -17 3
    endloop
  endfacet
  facet normal -1 0 0
    outer loop
      vertex -40.8333 -34 6
      vertex -40.8333 -31 3
      vertex -40.8333 -37 6
    endloop
  endfacet
  facet normal -1 0 0
    outer loop
      vertex -40.8333 -31 3
      vertex -40.8333 -17 3
      vertex -40.8333 -17 -3
    endloop
  endfacet
  facet normal -1 0 0
    outer loop
      vertex -40.8333 -31 3
      vertex -40.8333 -17 -3
      vertex -40.8333 -37 -3
    endloop
  endfacet
  facet normal -1 0 0
    outer loop
      vertex -40.8333 -31 3
      vertex -40.8333 -37 -3
      vertex -40.8333 -37 6
    endloop
  endfacet
  facet normal 1 0 0
    outer loop
      vertex -37.8333 -2 3
      vertex -37.8333 -37 -3
      vertex -37.8333 -2 -3
    endloop
  endfacet
  facet normal 1 0 0
    outer loop
      vertex -37.8333 -37 6
      vertex -37.8333 -31 3
      vertex -37.8333 -34 6
    endloop
  endfacet
  facet normal 1 0 0
    outer loop
      vertex -37.8333 -31 3
      vertex -37.8333 -37 -3
      vertex -37.8333 -2 3
    endloop
  endfacet
  facet normal 1 0 0
    outer loop
      vertex -37.8333 -37 6
      vertex -37.8333 -37 -3
      vertex -37.8333 -31 3
    endloop
  endfacet
  facet normal 0 -1 0
    outer loop
      vertex -37.8333 -2 3
      vertex -37.8333 -2 -3
      vertex -5.5 -2 -3
    endloop
  endfacet
  facet normal 0 -1 0
    outer loop
      vertex -5.5 -2 3
      vertex -37.8333 -2 3
      vertex -5.5 -2 -3
    endloop
  endfacet
  facet normal -1 0 0
    outer loop
      vertex -5.5 -37 -3
      vertex -5.5 -37 6
      vertex -5.5 -34 6
    endloop
  endfacet
  facet normal -1 0 0
    outer loop
      vertex -5.5 -31 3
      vertex -5.5 -2 3
      vertex -5.5 -37 -3
    endloop
  endfacet
  facet normal -1 0 0
    outer loop
      vertex -5.5 -31 3
      vertex -5.5 -37 -3
      vertex -5.5 -34 6
    endloop
  endfacet
  facet normal -1 0 0
    outer loop
      vertex -5.5 -37 -3
      vertex -5.5 -2 3
      vertex -5.5 -2 -3
    endloop
  endfacet
  facet normal 0 0.707107 -0.707107
    outer loop
      vertex 5.5 -37 -3
      vertex -5.5 -37 -3
      vertex -2.5 -37 -3
    endloop
  endfacet
  facet normal 0 0.707107 -0.707107
    outer loop
      vertex 5.5 -37 -3
      vertex -2.5 -37 -3
      vertex 2.5 -37 -3
    endloop
  endfacet
  facet normal 1 0 0
    outer loop
      vertex -2.5 -37 -3
      vertex -2.5 -17 -3
      vertex -2.5 -17 3
    endloop
  endfacet
  facet normal 1 0 0
    outer loop
      vertex -2.5 -34 6
      vertex -2.5 -37 -3
      vertex -2.5 -31 3
    endloop
  endfacet
  facet normal 1 0 0
    outer loop
      vertex -2.5 -31 3
      vertex -2.5 -37 -3
      vertex -2.5 -17 3
    endloop
  endfacet
  facet normal 1 0 0
    outer loop
      vertex -2.5 -37 6
      vertex -2.5 -37 -3
      vertex -2.5 -34 6
    endloop
  endfacet
  facet normal 0 0 1
    outer loop
      vertex -2.5 -37 -3
      vertex -5.5 -37 -3
      vertex 5.5 -37 -3
    endloop
  endfacet
  facet normal 0 0 1
    outer loop
      vertex -2.5 -37 -3
      vertex 5.5 -37 -3
      vertex 2.5 -37 -3
    endloop
  endfacet
  facet normal 0 -1 0
    outer loop
      vertex 2.5 -17 -3
      vertex 2.5 -17 3
      vertex -2.5 -17 3
    endloop
  endfacet
  facet normal 0 -1 0
    outer loop
      vertex -2.5 -17 -3
      vertex 2.5 -17 -3
      vertex -2.5 -17 3
    endloop
  endfacet
  facet normal -1 0 0
    outer loop
      vertex 2.5 -34 6
      vertex 2.5 -31 3
      vertex 2.5 -37 6
    endloop
  endfacet
  facet normal -1 0 0
    outer loop
      vertex 2.5 -31 3
      vertex 2.5 -17 3
      vertex 2.5 -17 -3
    endloop
  endfacet
  facet normal -1 0 0
    outer loop
      vertex 2.5 -31 3
      vertex 2.5 -17 -3
      vertex 2.5 -37 -3
    endloop
  endfacet
  facet normal -1 0 0
    outer loop
      vertex 2.5 -31 3
      vertex 2.5 -37 -3
      vertex 2.5 -37 6
    endloop
  endfacet
  facet normal 1 0 0
    outer loop
      vertex 5.5 -2 3
      vertex 5.5 -37 -3
      vertex 5.5 -2 -3
    endloop
  endfacet
  facet normal 1 0 0
    outer loop
      vertex 5.5 -37 6
      vertex 5.5 -31 3
      vertex 5.5 -34 6
    endloop
  endfacet
  facet normal 1 0 0
    outer loop
      vertex 5.5 -31 3
      vertex 5.5 -37 -3
      vertex 5.5 -2 3
    endloop
  endfacet
  facet normal 1 0 0
    outer loop
      vertex 5.5 -37 6
      vertex 5.5 -37 -3
      vertex 5.5 -31 3
    endloop
  endfacet
  facet normal 0 -1 0
    outer loop
      vertex 5.5 -2 3
      vertex 5.5 -2 -3
      vertex 37.8333 -2 -3
    endloop
  endfacet
  facet normal 0 -1 0
    outer loop
      vertex 37.8333 -2 3
      vertex 5.5 -2 3
      vertex 37.8333 -2 -3
    endloop
  endfacet
  facet normal -1 0 0
    outer loop
      vertex 37.8333 -37 -3
      vertex 37.8333 -37 6
      vertex 37.8333 -34 6
    endloop
  endfacet
  facet normal -1 0 0
    outer loop
      vertex 37.8333 -31 3
      vertex 37.8333 -2 3
      vertex 37.8333 -37 -3
    endloop
  endfacet
  facet normal -1 0 0
    outer loop
      vertex 37.8333 -31 3
      vertex 37.8333 -37 -3
      vertex 37.8333 -34 6
    endloop
  endfacet
  facet normal -1 0 0
    outer loop
      vertex 37.8333 -37 -3
      vertex 37.8333 -2 3
      vertex 37.8333 -2 -3
    endloop
  endfacet
  facet normal 0 0.707107 -0.707107
    outer loop
      vertex 48.8333 -37 -3
      vertex 37.8333 -37 -3
      vertex 40.8333 -37 -3
    endloop
  endfacet
  facet normal 0 0.707107 -0.707107
    outer loop
      vertex 48.8333 -37 -3
      vertex 40.8333 -37 -3
      vertex 45.8333 -37 -3
    endloop
  endfacet
  facet normal 1 0 0
    outer loop
      vertex 40.8333 -37 -3
      vertex 40.8333 -17 -3
      vertex 40.8333 -17 3
    endloop
  endfacet
  facet normal 1 0 0
    outer loop
      vertex 40.8333 -34 6
      vertex 40.8333 -37 -3
      vertex 40.8333 -31 3
    endloop
  endfacet
  facet normal 1 0 0
    outer loop
      vertex 40.8333 -31 3
      vertex 40.8333 -37 -3
      vertex 40.8333 -17 3
    endloop
  endfacet
  facet normal 1 0 0
    outer loop
      vertex 40.8333 -37 6
      vertex 40.8333 -37 -3
      vertex 40.8333 -34 6
    endloop
  endfacet
  facet normal 0 0 1
    outer loop
      vertex 40.8333 -37 -3
      vertex 37.8333 -37 -3
      vertex 48.8333 -37 -3
    endloop
  endfacet
  facet normal 0 0 1
    outer loop
      vertex 40.8333 -37 -3
      vertex 48.8333 -37 -3
      vertex 45.8333 -37 -3
    endloop
  endfacet
  facet normal 0 -1 0
    outer loop
      vertex 45.8333 -17 -3
      vertex 45.8333 -17 3
      vertex 40.8333 -17 3
    endloop
  endfacet
  facet normal 0 -1 0
    outer loop
      vertex 40.8333 -17 -3
      vertex 45.8333 -17 -3
      vertex 40.8333 -17 3
    endloop
  endfacet
  facet normal -1 0 0
    outer loop
      vertex 45.8333 -34 6
      vertex 45.8333 -31 3
      vertex 45.8333 -37 6
    endloop
  endfacet
  facet normal -1 0 0
    outer loop
      vertex 45.8333 -31 3
      vertex 45.8333 -17 3
      vertex 45.8333 -17 -3
    endloop
  endfacet
  facet normal -1 0 0
    outer loop
      vertex 45.8333 -31 3
      vertex 45.8333 -17 -3
      vertex 45.8333 -37 -3
    endloop
  endfacet
  facet normal -1 0 0
    outer loop
      vertex 45.8333 -31 3
      vertex 45.8333 -37 -3
      vertex 45.8333 -37 6
    endloop
  endfacet
  facet normal 1 0 0
    outer loop
      vertex 48.8333 -2 3
      vertex 48.8333 -37 -3
      vertex 48.8333 -2 -3
    endloop
  endfacet
  facet normal 1 0 0
    outer loop
      vertex 48.8333 -37 6
      vertex 48.8333 -31 3
      vertex 48.8333 -34 6
    endloop
  endfacet
  facet normal 1 0 0
    outer loop
      vertex 48.8333 -31 3
      vertex 48.8333 -37 -3
      vertex 48.8333 -2 3
    endloop
  endfacet
  facet normal 1 0 0
    outer loop
      vertex 48.8333 -37 6
      vertex 48.8333 -37 -3
      vertex 48.8333 -31 3
    endloop
  endfacet
  facet normal 0 -1 0
    outer loop
      vertex 48.8333 -2 3
      vertex 48.8333 -2 -3
      vertex 60.2102 -2 -3
    endloop
  endfacet
  facet normal 0 -1 0
    outer loop
      vertex 60.2102 -2 3
      vertex 48.8333 -2 3
      vertex 60.2102 -2 -3
    endloop
  endfacet
  facet normal -0.994522 -0.104528 0
    outer loop
      vertex 60.2102 -2 -3
      vertex 60.2185 -2.07912 -3
      vertex 60.2102 -2 3
    endloop
  endfacet
  facet normal -0.994522 -0.104528 0
    outer loop
      vertex 60.2102 -2 3
      vertex 60.2185 -2.07912 -3
      vertex 60.2185 -2.07912 3
    endloop
  endfacet
  facet normal -0.951057 -0.309017 0
    outer loop
      vertex 60.2185 -2.07912 -3
      vertex 60.8645 -4.06737 -3
      vertex 60.2185 -2.07912 3
    endloop
  endfacet
  facet normal -0.951057 -0.309017 0
    outer loop
      vertex 60.2185 -2.07912 3
      vertex 60.8645 -4.06737 -3
      vertex 60.8645 -4.06737 3
    endloop
  endfacet
  facet normal -0.866025 -0.5 0
    outer loop
      vertex 60.8645 -4.06737 -3
      vertex 61.9098 -5.87785 -3
      vertex 60.8645 -4.06737 3
    endloop
  endfacet
  facet normal -0.866025 -0.5 0
    outer loop
      vertex 60.8645 -4.06737 3
      vertex 61.9098 -5.87785 -3
      vertex 61.9098 -5.87785 3
    endloop
  endfacet
  facet normal -0.743145 -0.669131 0
    outer loop
      vertex 61.9098 -5.87785 -3
      vertex 63.3087 -7.43145 -3
      vertex 61.9098 -5.87785 3
    endloop
  endfacet
  facet normal -0.743145 -0.669131 0
    outer loop
      vertex 61.9098 -5.87785 3
      vertex 63.3087 -7.43145 -3
      vertex 63.3087 -7.43145 3
    endloop
  endfacet
  facet normal -0.587785 -0.809017 0
    outer loop
      vertex 63.3087 -7.43145 3
      vertex 63.3087 -7.43145 -3
      vertex 65 -8.66025 -3
    endloop
  endfacet
  facet normal -0.587785 -0.809017 0
    outer loop
      vertex 65 -8.66025 3
      vertex 63.3087 -7.43145 3
      vertex 65 -8.66025 -3
    endloop
  endfacet
  facet normal -0.406737 -0.913545 0
    outer loop
      vertex 65 -8.66025 3
      vertex 65 -8.66025 -3
      vertex 66.9098 -9.51056 -3
    endloop
  endfacet
  facet normal -0.406737 -0.913545 0
    outer loop
      vertex 66.9098 -9.51056 3
      vertex 65 -8.66025 3
      vertex 66.9098 -9.51056 -3
    endloop
  endfacet
  facet normal -0.207912 -0.978148 0
    outer loop
      vertex 66.9098 -9.51056 3
      vertex 66.9098 -9.51056 -3
      vertex 68.9547 -9.94522 -3
    endloop
  endfacet
  facet normal -0.207912 -0.978148 0
    outer loop
      vertex 68.9547 -9.94522 3
      vertex 66.9098 -9.51056 3
      vertex 68.9547 -9.94522 -3
    endloop
  endfacet
  facet normal 0 -1 0
    outer loop
      vertex 68.9547 -9.94522 3
      vertex 68.9547 -9.94522 -3
      vertex 71.0453 -9.94522 -3
    endloop
  endfacet
  facet normal 0 -1 0
    outer loop
      vertex 71.0453 -9.94522 3
      vertex 68.9547 -9.94522 3
      vertex 71.0453 -9.94522 -3
    endloop
  endfacet
  facet normal 0.207912 -0.978148 0
    outer loop
      vertex 71.0453 -9.94522 3
      vertex 71.0453 -9.94522 -3
      vertex 73.0902 -9.51056 -3
    endloop
  endfacet
  facet normal 0.207912 -0.978148 0
    outer loop
      vertex 73.0902 -9.51056 3
      vertex 71.0453 -9.94522 3
      vertex 73.0902 -9.51056 -3
    endloop
  endfacet
  facet normal 0.406737 -0.913545 0
    outer loop
      vertex 73.0902 -9.51056 3
      vertex 73.0902 -9.51056 -3
      vertex 75 -8.66025 -3
    endloop
  endfacet
  facet normal 0.406737 -0.913545 0
    outer loop
      vertex 75 -8.66025 3
      vertex 73.0902 -9.51056 3
      vertex 75 -8.66025 -3
    endloop
  endfacet
  facet normal 0.587785 -0.809017 0
    outer loop
      vertex 75 -8.66025 3
      vertex 75 -8.66025 -3
      vertex 76.6913 -7.43145 -3
    endloop
  endfacet
  facet normal 0.587785 -0.809017 0
    outer loop
      vertex 76.6913 -7.43145 3
      vertex 75 -8.66025 3
      vertex 76.6913 -7.43145 -3
    endloop
  endfacet
  facet normal 0.743145 -0.669131 0
    outer loop
      vertex 76.6913 -7.43145 3
      vertex 76.6913 -7.43145 -3
      vertex 78.0902 -5.87785 -3
    endloop
  endfacet
  facet normal 0.743145 -0.669131 0
    outer loop
      vertex 78.0902 -5.87785 3
      vertex 76.6913 -7.43145 3
      vertex 78.0902 -5.87785 -3
    endloop
  endfacet
  facet normal 0.866025 -0.5 0
    outer loop
      vertex 78.0902 -5.87785 3
      vertex 78.0902 -5.87785 -3
      vertex 79.1355 -4.06737 -3
    endloop
  endfacet
  facet normal 0.866025 -0.5 0
    outer loop
      vertex 79.1355 -4.06737 3
      vertex 78.0902 -5.87785 3
      vertex 79.1355 -4.06737 -3
    endloop
  endfacet
  facet normal 0.951057 -0.309017 0
    outer loop
      vertex 79.1355 -4.06737 3
      vertex 79.1355 -4.06737 -3
      vertex 79.7815 -2.07912 -3
    endloop
  endfacet
  facet normal 0.951057 -0.309017 0
    outer loop
      vertex 79.7815 -2.07912 3
      vertex 79.1355 -4.06737 3
      vertex 79.7815 -2.07912 -3
    endloop
  endfacet
  facet normal 0.994522 -0.104528 0
    outer loop
      vertex 79.7815 -2.07912 3
      vertex 79.7815 -2.07912 -3
      vertex 80 0 -3
    endloop
  endfacet
  facet normal 0.994522 -0.104528 0
    outer loop
      vertex 80 0 3
      vertex 79.7815 -2.07912 3
      vertex 80 0 -3
    endloop
  endfacet
  facet normal 0.994522 0.104528 0
    outer loop
      vertex 80 0 -3
      vertex 79.7815 2.07912 -3
      vertex 79.7815 2.07912 3
    endloop
  endfacet
  facet normal 0.994522 0.104528 0
    outer loop
      vertex 80 0 3
      vertex 80 0 -3
      vertex 79.7815 2.07912 3
    endloop
  endfacet
  facet normal 0.951057 0.309017 0
    outer loop
      vertex 79.7815 2.07912 -3
      vertex 79.1355 4.06737 -3
      vertex 79.1355 4.06737 3
    endloop
  endfacet
  facet normal 0.951057 0.309017 0
    outer loop
      vertex 79.7815 2.07912 3
      vertex 79.7815 2.07912 -3
      vertex 79.1355 4.06737 3
    endloop
  endfacet
  facet normal 0.866025 0.5 0
    outer loop
      vertex 79.1355 4.06737 -3
      vertex 78.0902 5.87785 -3
      vertex 78.0902 5.87785 3
    endloop
  endfacet
  facet normal 0.866025 0.5 0
    outer loop
      vertex 79.1355 4.06737 3
      vertex 79.1355 4.06737 -3
      vertex 78.0902 5.87785 3
    endloop
  endfacet
  facet normal 0.743145 0.669131 0
    outer loop
      vertex 78.0902 5.87785 -3
      vertex 76.6913 7.43145 -3
      vertex 76.6913 7.43145 3
    endloop
  endfacet
  facet normal 0.743145 0.669131 0
    outer loop
      vertex 78.0902 5.87785 3
      vertex 78.0902 5.87785 -3
      vertex 76.6913 7.43145 3
    endloop
  endfacet
  facet normal 0.587785 0.809017 0
    outer loop
      vertex 75 8.66025 -3
      vertex 75 8.66025 3
      vertex 76.6913 7.43145 -3
    endloop
  endfacet
  facet normal 0.587785 0.809017 0
    outer loop
      vertex 76.6913 7.43145 -3
      vertex 75 8.66025 3
      vertex 76.6913 7.43145 3
    endloop
  endfacet
  facet normal 0.406737 0.913545 0
    outer loop
      vertex 73.0902 9.51056 -3
      vertex 73.0902 9.51056 3
      vertex 75 8.66025 -3
    endloop
  endfacet
  facet normal 0.406737 0.913545 0
    outer loop
      vertex 75 8.66025 -3
      vertex 73.0902 9.51056 3
      vertex 75 8.66025 3
    endloop
  endfacet
  facet normal 0.207912 0.978148 0
    outer loop
      vertex 71.0453 9.94522 -3
      vertex 71.0453 9.94522 3
      vertex 73.0902 9.51056 -3
    endloop
  endfacet
  facet normal 0.207912 0.978148 0
    outer loop
      vertex 73.0902 9.51056 -3
      vertex 71.0453 9.94522 3
      vertex 73.0902 9.51056 3
    endloop
  endfacet
  facet normal 0 1 0
    outer loop
      vertex 68.9547 9.94522 -3
      vertex 68.9547 9.94522 3
      vertex 71.0453 9.94522 -3
    endloop
  endfacet
  facet normal 0 1 0
    outer loop
      vertex 71.0453 9.94522 -3
      vertex 68.9547 9.94522 3
      vertex 71.0453 9.94522 3
    endloop
  endfacet
  facet normal -0.207912 0.978148 0
    outer loop
      vertex 66.9098 9.51056 -3
      vertex 66.9098 9.51056 3
      vertex 68.9547 9.94522 -3
    endloop
  endfacet
  facet normal -0.207912 0.978148 0
    outer loop
      vertex 68.9547 9.94522 -3
      vertex 66.9098 9.51056 3
      vertex 68.9547 9.94522 3
    endloop
  endfacet
  facet normal -0.406737 0.913545 0
    outer loop
      vertex 65 8.66025 -3
      vertex 65 8.66025 3
      vertex 66.9098 9.51056 -3
    endloop
  endfacet
  facet normal -0.406737 0.913545 0
    outer loop
      vertex 66.9098 9.51056 -3
      vertex 65 8.66025 3
      vertex 66.9098 9.51056 3
    endloop
  endfacet
  facet normal -0.587785 0.809017 0
    outer loop
      vertex 63.3087 7.43145 -3
      vertex 63.3087 7.43145 3
      vertex 65 8.66025 -3
    endloop
  endfacet
  facet normal -0.587785 0.809017 0
    outer loop
      vertex 65 8.66025 -3
      vertex 63.3087 7.43145 3
      vertex 65 8.66025 3
    endloop
  endfacet
  facet normal -0.743145 0.669131 0
    outer loop
      vertex 61.9098 5.87785 -3
      vertex 61.9098 5.87785 3
      vertex 63.3087 7.43145 -3
    endloop
  endfacet
  facet normal -0.743145 0.669131 0
    outer loop
      vertex 63.3087 7.43145 -3
      vertex 61.9098 5.87785 3
      vertex 63.3087 7.43145 3
    endloop
  endfacet
  facet normal -0.866025 0.5 0
    outer loop
      vertex 60.8645 4.06737 -3
      vertex 60.8645 4.06737 3
      vertex 61.9098 5.87785 -3
    endloop
  endfacet
  facet normal -0.866025 0.5 0
    outer loop
      vertex 61.9098 5.87785 -3
      vertex 60.8645 4.06737 3
      vertex 61.9098 5.87785 3
    endloop
  endfacet
  facet normal -0.951057 0.309017 0
    outer loop
      vertex 60.2185 2.07912 -3
      vertex 60.2185 2.07912 3
      vertex 60.8645 4.06737 -3
    endloop
  endfacet
  facet normal -0.951057 0.309017 0
    outer loop
      vertex 60.8645 4.06737 -3
      vertex 60.2185 2.07912 3
      vertex 60.8645 4.06737 3
    endloop
  endfacet
  facet normal -0.994522 0.104528 0
    outer loop
      vertex 60.2102 2 -3
      vertex 60.2102 2 3
      vertex 60.2185 2.07912 -3
    endloop
  endfacet
  facet normal -0.994522 0.104528 0
    outer loop
      vertex 60.2185 2.07912 -3
      vertex 60.2102 2 3
      vertex 60.2185 2.07912 3
    endloop
  endfacet
  facet normal 0 1 0
    outer loop
      vertex 48.8333 2 -3
      vertex 48.8333 2 3
      vertex 60.2102 2 -3
    endloop
  endfacet
  facet normal 0 1 0
    outer loop
      vertex 60.2102 2 -3
      vertex 48.8333 2 3
      vertex 60.2102 2 3
    endloop
  endfacet
  facet normal 1 0 0
    outer loop
      vertex 48.8333 2 3
      vertex 48.8333 2 -3
      vertex 48.8333 37 -3
    endloop
  endfacet
  facet normal 1 0 0
    outer loop
      vertex 48.8333 34 6
      vertex 48.8333 31 3
      vertex 48.8333 37 6
    endloop
  endfacet
  facet normal 1 0 0
    outer loop
      vertex 48.8333 37 -3
      vertex 48.8333 31 3
      vertex 48.8333 2 3
    endloop
  endfacet
  facet normal 1 0 0
    outer loop
      vertex 48.8333 37 -3
      vertex 48.8333 37 6
      vertex 48.8333 31 3
    endloop
  endfacet
  facet normal 0 -0.707107 -0.707107
    outer loop
      vertex 40.8333 37 -3
      vertex 37.8333 37 -3
      vertex 48.8333 37 -3
    endloop
  endfacet
  facet normal 0 -0.707107 -0.707107
    outer loop
      vertex 40.8333 37 -3
      vertex 48.8333 37 -3
      vertex 45.8333 37 -3
    endloop
  endfacet
  facet normal -1 0 0
    outer loop
      vertex 45.8333 31 3
      vertex 45.8333 34 6
      vertex 45.8333 37 6
    endloop
  endfacet
  facet normal -1 0 0
    outer loop
      vertex 45.8333 31 3
      vertex 45.8333 37 6
      vertex 45.8333 37 -3
    endloop
  endfacet
  facet normal -1 0 0
    outer loop
      vertex 45.8333 31 3
      vertex 45.8333 37 -3
      vertex 45.8333 17 3
    endloop
  endfacet
  facet normal -1 0 0
    outer loop
      vertex 45.8333 37 -3
      vertex 45.8333 17 -3
      vertex 45.8333 17 3
    endloop
  endfacet
  facet normal 0 0 1
    outer loop
      vertex 48.8333 37 -3
      vertex 40.8333 37 -3
      vertex 45.8333 37 -3
    endloop
  endfacet
  facet normal 0 0 1
    outer loop
      vertex 37.8333 37 -3
      vertex 40.8333 37 -3
      vertex 48.8333 37 -3
    endloop
  endfacet
  facet normal 0 1 0
    outer loop
      vertex 45.8333 17 3
      vertex 45.8333 17 -3
      vertex 40.8333 17 3
    endloop
  endfacet
  facet normal 0 1 0
    outer loop
      vertex 40.8333 17 3
      vertex 45.8333 17 -3
      vertex 40.8333 17 -3
    endloop
  endfacet
  facet normal 1 0 0
    outer loop
      vertex 40.8333 31 3
      vertex 40.8333 37 -3
      vertex 40.8333 34 6
    endloop
  endfacet
  facet normal 1 0 0
    outer loop
      vertex 40.8333 34 6
      vertex 40.8333 37 -3
      vertex 40.8333 37 6
    endloop
  endfacet
  facet normal 1 0 0
    outer loop
      vertex 40.8333 17 3
      vertex 40.8333 37 -3
      vertex 40.8333 31 3
    endloop
  endfacet
  facet normal 1 0 0
    outer loop
      vertex 40.8333 17 -3
      vertex 40.8333 37 -3
      vertex 40.8333 17 3
    endloop
  endfacet
  facet normal -1 0 0
    outer loop
      vertex 37.8333 2 -3
      vertex 37.8333 2 3
      vertex 37.8333 37 -3
    endloop
  endfacet
  facet normal -1 0 0
    outer loop
      vertex 37.8333 37 -3
      vertex 37.8333 2 3
      vertex 37.8333 31 3
    endloop
  endfacet
  facet normal -1 0 0
    outer loop
      vertex 37.8333 37 -3
      vertex 37.8333 31 3
      vertex 37.8333 34 6
    endloop
  endfacet
  facet normal -1 0 0
    outer loop
      vertex 37.8333 37 -3
      vertex 37.8333 34 6
      vertex 37.8333 37 6
    endloop
  endfacet
  facet normal 0 1 0
    outer loop
      vertex 5.5 2 -3
      vertex 5.5 2 3
      vertex 37.8333 2 -3
    endloop
  endfacet
  facet normal 0 1 0
    outer loop
      vertex 37.8333 2 -3
      vertex 5.5 2 3
      vertex 37.8333 2 3
    endloop
  endfacet
  facet normal 1 0 0
    outer loop
      vertex 5.5 2 3
      vertex 5.5 2 -3
      vertex 5.5 37 -3
    endloop
  endfacet
  facet normal 1 0 0
    outer loop
      vertex 5.5 34 6
      vertex 5.5 31 3
      vertex 5.5 37 6
    endloop
  endfacet
  facet normal 1 0 0
    outer loop
      vertex 5.5 37 -3
      vertex 5.5 31 3
      vertex 5.5 2 3
    endloop
  endfacet
  facet normal 1 0 0
    outer loop
      vertex 5.5 37 -3
      vertex 5.5 37 6
      vertex 5.5 31 3
    endloop
  endfacet
  facet normal 0 -0.707107 -0.707107
    outer loop
      vertex -2.5 37 -3
      vertex -5.5 37 -3
      vertex 5.5 37 -3
    endloop
  endfacet
  facet normal 0 -0.707107 -0.707107
    outer loop
      vertex -2.5 37 -3
      vertex 5.5 37 -3
      vertex 2.5 37 -3
    endloop
  endfacet
  facet normal -1 0 0
    outer loop
      vertex 2.5 31 3
      vertex 2.5 34 6
      vertex 2.5 37 6
    endloop
  endfacet
  facet normal -1 0 0
    outer loop
      vertex 2.5 31 3
      vertex 2.5 37 6
      vertex 2.5 37 -3
    endloop
  endfacet
  facet normal -1 0 0
    outer loop
      vertex 2.5 31 3
      vertex 2.5 37 -3
      vertex 2.5 17 3
    endloop
  endfacet
  facet normal -1 0 0
    outer loop
      vertex 2.5 37 -3
      vertex 2.5 17 -3
      vertex 2.5 17 3
    endloop
  endfacet
  facet normal 0 0 1
    outer loop
      vertex 5.5 37 -3
      vertex -2.5 37 -3
      vertex 2.5 37 -3
    endloop
  endfacet
  facet normal 0 0 1
    outer loop
      vertex -5.5 37 -3
      vertex -2.5 37 -3
      vertex 5.5 37 -3
    endloop
  endfacet
  facet normal 0 1 0
    outer loop
      vertex 2.5 17 3
      vertex 2.5 17 -3
      vertex -2.5 17 3
    endloop
  endfacet
  facet normal 0 1 0
    outer loop
      vertex -2.5 17 3
      vertex 2.5 17 -3
      vertex -2.5 17 -3
    endloop
  endfacet
  facet normal 1 0 0
    outer loop
      vertex -2.5 31 3
      vertex -2.5 37 -3
      vertex -2.5 34 6
    endloop
  endfacet
  facet normal 1 0 0
    outer loop
      vertex -2.5 34 6
      vertex -2.5 37 -3
      vertex -2.5 37 6
    endloop
  endfacet
  facet normal 1 0 0
    outer loop
      vertex -2.5 17 3
      vertex -2.5 37 -3
      vertex -2.5 31 3
    endloop
  endfacet
  facet normal 1 0 0
    outer loop
      vertex -2.5 17 -3
      vertex -2.5 37 -3
      vertex -2.5 17 3
    endloop
  endfacet
  facet normal -1 0 0
    outer loop
      vertex -5.5 2 -3
      vertex -5.5 2 3
      vertex -5.5 37 -3
    endloop
  endfacet
  facet normal -1 0 0
    outer loop
      vertex -5.5 37 -3
      vertex -5.5 2 3
      vertex -5.5 31 3
    endloop
  endfacet
  facet normal -1 0 0
    outer loop
      vertex -5.5 37 -3
      vertex -5.5 31 3
      vertex -5.5 34 6
    endloop
  endfacet
  facet normal -1 0 0
    outer loop
      vertex -5.5 37 -3
      vertex -5.5 34 6
      vertex -5.5 37 6
    endloop
  endfacet
  facet normal 0 1 0
    outer loop
      vertex -37.8333 2 -3
      vertex -37.8333 2 3
      vertex -5.5 2 -3
    endloop
  endfacet
  facet normal 0 1 0
    outer loop
      vertex -5.5 2 -3
      vertex -37.8333 2 3
      vertex -5.5 2 3
    endloop
  endfacet
  facet normal 1 0 0
    outer loop
      vertex -37.8333 2 3
      vertex -37.8333 2 -3
      vertex -37.8333 37 -3
    endloop
  endfacet
  facet normal 1 0 0
    outer loop
      vertex -37.8333 34 6
      vertex -37.8333 31 3
      vertex -37.8333 37 6
    endloop
  endfacet
  facet normal 1 0 0
    outer loop
      vertex -37.8333 37 -3
      vertex -37.8333 31 3
      vertex -37.8333 2 3
    endloop
  endfacet
  facet normal 1 0 0
    outer loop
      vertex -37.8333 37 -3
      vertex -37.8333 37 6
      vertex -37.8333 31 3
    endloop
  endfacet
  facet normal 0 -0.707107 -0.707107
    outer loop
      vertex -45.8333 37 -3
      vertex -48.8333 37 -3
      vertex -37.8333 37 -3
    endloop
  endfacet
  facet normal 0 -0.707107 -0.707107
    outer loop
      vertex -45.8333 37 -3
      vertex -37.8333 37 -3
      vertex -40.8333 37 -3
    endloop
  endfacet
  facet normal -1 0 0
    outer loop
      vertex -40.8333 31 3
      vertex -40.8333 34 6
      vertex -40.8333 37 6
    endloop
  endfacet
  facet normal -1 0 0
    outer loop
      vertex -40.8333 31 3
      vertex -40.8333 37 6
      vertex -40.8333 37 -3
    endloop
  endfacet
  facet normal -1 0 0
    outer loop
      vertex -40.8333 31 3
      vertex -40.8333 37 -3
      vertex -40.8333 17 3
    endloop
  endfacet
  facet normal -1 0 0
    outer loop
      vertex -40.8333 37 -3
      vertex -40.8333 17 -3
      vertex -40.8333 17 3
    endloop
  endfacet
  facet normal 0 0 1
    outer loop
      vertex -37.8333 37 -3
      vertex -45.8333 37 -3
      vertex -40.8333 37 -3
    endloop
  endfacet
  facet normal 0 0 1
    outer loop
      vertex -48.8333 37 -3
      vertex -45.8333 37 -3
      vertex -37.8333 37 -3
    endloop
  endfacet
  facet normal 0 1 0
    outer loop
      vertex -40.8333 17 3
      vertex -40.8333 17 -3
      vertex -45.8333 17 3
    endloop
  endfacet
  facet normal 0 1 0
    outer loop
      vertex -45.8333 17 3
      vertex -40.8333 17 -3
      vertex -45.8333 17 -3
    endloop
  endfacet
  facet normal 1 0 0
    outer loop
      vertex -45.8333 31 3
      vertex -45.8333 37 -3
      vertex -45.8333 34 6
    endloop
  endfacet
  facet normal 1 0 0
    outer loop
      vertex -45.8333 34 6
      vertex -45.8333 37 -3
      vertex -45.8333 37 6
    endloop
  endfacet
  facet normal 1 0 0
    outer loop
      vertex -45.8333 17 3
      vertex -45.8333 37 -3
      vertex -45.8333 31 3
    endloop
  endfacet
  facet normal 1 0 0
    outer loop
      vertex -45.8333 17 -3
      vertex -45.8333 37 -3
      vertex -45.8333 17 3
    endloop
  endfacet
  facet normal -1 0 0
    outer loop
      vertex -48.8333 2 -3
      vertex -48.8333 2 3
      vertex -48.8333 37 -3
    endloop
  endfacet
  facet normal -1 0 0
    outer loop
      vertex -48.8333 37 -3
      vertex -48.8333 2 3
      vertex -48.8333 31 3
    endloop
  endfacet
  facet normal -1 0 0
    outer loop
      vertex -48.8333 37 -3
      vertex -48.8333 31 3
      vertex -48.8333 34 6
    endloop
  endfacet
  facet normal -1 0 0
    outer loop
      vertex -48.8333 37 -3
      vertex -48.8333 34 6
      vertex -48.8333 37 6
    endloop
  endfacet
  facet normal 0 1 0
    outer loop
      vertex -60.2102 2 -3
      vertex -60.2102 2 3
      vertex -48.8333 2 -3
    endloop
  endfacet
  facet normal 0 1 0
    outer loop
      vertex -48.8333 2 -3
      vertex -60.2102 2 3
      vertex -48.8333 2 3
    endloop
  endfacet
  facet normal 0.994522 0.104528 0
    outer loop
      vertex -60.2102 2 -3
      vertex -60.2185 2.07912 -3
      vertex -60.2185 2.07912 3
    endloop
  endfacet
  facet normal 0.994522 0.104528 0
    outer loop
      vertex -60.2102 2 3
      vertex -60.2102 2 -3
      vertex -60.2185 2.07912 3
    endloop
  endfacet
  facet normal 0.951057 0.309017 0
    outer loop
      vertex -60.2185 2.07912 -3
      vertex -60.8645 4.06737 -3
      vertex -60.8645 4.06737 3
    endloop
  endfacet
  facet normal 0.951057 0.309017 0
    outer loop
      vertex -60.2185 2.07912 3
      vertex -60.2185 2.07912 -3
      vertex -60.8645 4.06737 3
    endloop
  endfacet
  facet normal 0.866025 0.5 0
    outer loop
      vertex -60.8645 4.06737 -3
      vertex -61.9098 5.87785 -3
      vertex -61.9098 5.87785 3
    endloop
  endfacet
  facet normal 0.866025 0.5 0
    outer loop
      vertex -60.8645 4.06737 3
      vertex -60.8645 4.06737 -3
      vertex -61.9098 5.87785 3
    endloop
  endfacet
  facet normal 0.743145 0.669131 0
    outer loop
      vertex -61.9098 5.87785 -3
      vertex -63.3087 7.43145 -3
      vertex -63.3087 7.43145 3
    endloop
  endfacet
  facet normal 0.743145 0.669131 0
    outer loop
      vertex -61.9098 5.87785 3
      vertex -61.9098 5.87785 -3
      vertex -63.3087 7.43145 3
    endloop
  endfacet
  facet normal 0.587785 0.809017 0
    outer loop
      vertex -65 8.66025 -3
      vertex -65 8.66025 3
      vertex -63.3087 7.43145 -3
    endloop
  endfacet
  facet normal 0.587785 0.809017 0
    outer loop
      vertex -63.3087 7.43145 -3
      vertex -65 8.66025 3
      vertex -63.3087 7.43145 3
    endloop
  endfacet
  facet normal 0.406737 0.913545 0
    outer loop
      vertex -66.9098 9.51056 -3
      vertex -66.9098 9.51056 3
      vertex -65 8.66025 -3
    endloop
  endfacet
  facet normal 0.406737 0.913545 0
    outer loop
      vertex -65 8.66025 -3
      vertex -66.9098 9.51056 3
      vertex -65 8.66025 3
    endloop
  endfacet
  facet normal 0.207912 0.978148 0
    outer loop
      vertex -68.9547 9.94522 -3
      vertex -68.9547 9.94522 3
      vertex -66.9098 9.51056 -3
    endloop
  endfacet
  facet normal 0.207912 0.978148 0
    outer loop
      vertex -66.9098 9.51056 -3
      vertex -68.9547 9.94522 3
      vertex -66.9098 9.51056 3
    endloop
  endfacet
  facet normal 0 1 0
    outer loop
      vertex -71.0453 9.94522 -3
      vertex -71.0453 9.94522 3
      vertex -68.9547 9.94522 -3
    endloop
  endfacet
  facet normal 0 1 0
    outer loop
      vertex -68.9547 9.94522 -3
      vertex -71.0453 9.94522 3
      vertex -68.9547 9.94522 3
    endloop
  endfacet
  facet normal -0.207912 0.978148 0
    outer loop
      vertex -73.0902 9.51056 -3
      vertex -73.0902 9.51056 3
      vertex -71.0453 9.94522 -3
    endloop
  endfacet
  facet normal -0.207912 0.978148 0
    outer loop
      vertex -71.0453 9.94522 -3
      vertex -73.0902 9.51056 3
      vertex -71.0453 9.94522 3
    endloop
  endfacet
  facet normal -0.406737 0.913545 0
    outer loop
      vertex -75 8.66025 -3
      vertex -75 8.66025 3
      vertex -73.0902 9.51056 -3
    endloop
  endfacet
  facet normal -0.406737 0.913545 0
    outer loop
      vertex -73.0902 9.51056 -3
      vertex -75 8.66025 3
      vertex -73.0902 9.51056 3
    endloop
  endfacet
  facet normal -0.587785 0.809017 0
    outer loop
      vertex -76.6913 7.43145 -3
      vertex -76.6913 7.43145 3
      vertex -75 8.66025 -3
    endloop
  endfacet
  facet normal -0.587785 0.809017 0
    outer loop
      vertex -75 8.66025 -3
      vertex -76.6913 7.43145 3
      vertex -75 8.66025 3
    endloop
  endfacet
  facet normal -0.743145 0.669131 0
    outer loop
      vertex -78.0902 5.87785 -3
      vertex -78.0902 5.87785 3
      vertex -76.6913 7.43145 -3
    endloop
  endfacet
  facet normal -0.743145 0.669131 0
    outer loop
      vertex -76.6913 7.43145 -3
      vertex -78.0902 5.87785 3
      vertex -76.6913 7.43145 3
    endloop
  endfacet
  facet normal -0.866025 0.5 0
    outer loop
      vertex -79.1355 4.06737 -3
      vertex -79.1355 4.06737 3
      vertex -78.0902 5.87785 -3
    endloop
  endfacet
  facet normal -0.866025 0.5 0
    outer loop
      vertex -78.0902 5.87785 -3
      vertex -79.1355 4.06737 3
      vertex -78.0902 5.87785 3
    endloop
  endfacet
  facet normal -0.951057 0.309017 0
    outer loop
      vertex -79.7815 2.07912 -3
      vertex -79.7815 2.07912 3
      vertex -79.1355 4.06737 -3
    endloop
  endfacet
  facet normal -0.951057 0.309017 0
    outer loop
      vertex -79.1355 4.06737 -3
      vertex -79.7815 2.07912 3
      vertex -79.1355 4.06737 3
    endloop
  endfacet
  facet normal 1 7.85046e-017 0
    outer loop
      vertex -74.2426 4.24264 3
      vertex -74.2426 -4.24264 3
      vertex -74.2426 -4.24264 -3
    endloop
  endfacet
  facet normal 1 7.85046e-017 0
    outer loop
      vertex -74.2426 4.24264 -3
      vertex -74.2426 4.24264 3
      vertex -74.2426 -4.24264 -3
    endloop
  endfacet
  facet normal 7.85046e-017 -1 0
    outer loop
      vertex -65.7574 4.24264 -3
      vertex -65.7574 4.24264 3
      vertex -74.2426 4.24264 3
    endloop
  endfacet
  facet normal 7.85046e-017 -1 0
    outer loop
      vertex -74.2426 4.24264 -3
      vertex -65.7574 4.24264 -3
      vertex -74.2426 4.24264 3
    endloop
  endfacet
  facet normal -1 -7.85046e-017 0
    outer loop
      vertex -65.7574 -4.24264 3
      vertex -65.7574 4.24264 3
      vertex -65.7574 -4.24264 -3
    endloop
  endfacet
  facet normal -1 -7.85046e-017 0
    outer loop
      vertex -65.7574 -4.24264 -3
      vertex -65.7574 4.24264 3
      vertex -65.7574 4.24264 -3
    endloop
  endfacet
  facet normal -7.85046e-017 1 0
    outer loop
      vertex -65.7574 -4.24264 3
      vertex -65.7574 -4.24264 -3
      vertex -74.2426 -4.24264 3
    endloop
  endfacet
  facet normal -7.85046e-017 1 0
    outer loop
      vertex -74.2426 -4.24264 3
      vertex -65.7574 -4.24264 -3
      vertex -74.2426 -4.24264 -3
    endloop
  endfacet
  facet normal 1 7.85046e-017 0
    outer loop
      vertex 65.7574 4.24264 3
      vertex 65.7574 -4.24264 3
      vertex 65.7574 -4.24264 -3
    endloop
  endfacet
  facet normal 1 7.85046e-017 0
    outer loop
      vertex 65.7574 4.24264 -3
      vertex 65.7574 4.24264 3
      vertex 65.7574 -4.24264 -3
    endloop
  endfacet
  facet normal 7.85046e-017 -1 0
    outer loop
      vertex 74.2426 4.24264 -3
      vertex 74.2426 4.24264 3
      vertex 65.7574 4.24264 3
    endloop
  endfacet
  facet normal 7.85046e-017 -1 0
    outer loop
      vertex 65.7574 4.24264 -3
      vertex 74.2426 4.24264 -3
      vertex 65.7574 4.24264 3
    endloop
  endfacet
  facet normal -1 -7.85046e-017 0
    outer loop
      vertex 74.2426 -4.24264 3
      vertex 74.2426 4.24264 3
      vertex 74.2426 -4.24264 -3
    endloop
  endfacet
  facet normal -1 -7.85046e-017 0
    outer loop
      vertex 74.2426 -4.24264 -3
      vertex 74.2426 4.24264 3
      vertex 74.2426 4.24264 -3
    endloop
  endfacet
  facet normal -7.85046e-017 1 0
    outer loop
      vertex 74.2426 -4.24264 3
      vertex 74.2426 -4.24264 -3
      vertex 65.7574 -4.24264 3
    endloop
  endfacet
  facet normal -7.85046e-017 1 0
    outer loop
      vertex 65.7574 -4.24264 3
      vertex 74.2426 -4.24264 -3
      vertex 65.7574 -4.24264 -3
    endloop
  endfacet
  facet normal 0 0 1
    outer loop
      vertex -79.7815 2.07912 3
      vertex -80 0 3
      vertex -79.7815 -2.07912 3
    endloop
  endfacet
  facet normal 0 0 1
    outer loop
      vertex -78.0902 -5.87785 3
      vertex -79.7815 2.07912 3
      vertex -79.1355 -4.06737 3
    endloop
  endfacet
  facet normal 0 0 1
    outer loop
      vertex -79.1355 -4.06737 3
      vertex -79.7815 2.07912 3
      vertex -79.7815 -2.07912 3
    endloop
  endfacet
  facet normal 0 0 1
    outer loop
      vertex -76.6913 -7.43145 3
      vertex -79.7815 2.07912 3
      vertex -78.0902 -5.87785 3
    endloop
  endfacet
  facet normal 0 0 1
    outer loop
      vertex -75 -8.66025 3
      vertex -79.7815 2.07912 3
      vertex -76.6913 -7.43145 3
    endloop
  endfacet
  facet normal 0 0 1
    outer loop
      vertex -73.0902 -9.51056 3
      vertex -79.7815 2.07912 3
      vertex -75 -8.66025 3
    endloop
  endfacet
  facet normal 0 0 1
    outer loop
      vertex -71.0453 -9.94522 3
      vertex -79.7815 2.07912 3
      vertex -73.0902 -9.51056 3
    endloop
  endfacet
  facet normal 0 0 1
    outer loop
      vertex -74.2426 -4.24264 3
      vertex -79.7815 2.07912 3
      vertex -71.0453 -9.94522 3
    endloop
  endfacet
  facet normal 0 0 1
    outer loop
      vertex -74.2426 4.24264 3
      vertex -65.7574 4.24264 3
      vertex -61.9098 5.87785 3
    endloop
  endfacet
  facet normal 0 0 1
    outer loop
      vertex 60.2102 -2 3
      vertex 5.5 2 3
      vertex -5.5 2 3
    endloop
  endfacet
  facet normal 0 0 1
    outer loop
      vertex 60.2102 -2 3
      vertex -5.5 2 3
      vertex -37.8333 2 3
    endloop
  endfacet
  facet normal 0 0 1
    outer loop
      vertex 60.2102 -2 3
      vertex -37.8333 2 3
      vertex -48.8333 2 3
    endloop
  endfacet
  facet normal 0 0 1
    outer loop
      vertex 65.7574 -4.24264 3
      vertex 65.7574 4.24264 3
      vertex 60.8645 4.06737 3
    endloop
  endfacet
  facet normal 0 0 1
    outer loop
      vertex 65.7574 -4.24264 3
      vertex 60.8645 4.06737 3
      vertex 60.2185 2.07912 3
    endloop
  endfacet
  facet normal 0 0 1
    outer loop
      vertex 65.7574 -4.24264 3
      vertex 60.2185 2.07912 3
      vertex 60.2102 2 3
    endloop
  endfacet
  facet normal 0 0 1
    outer loop
      vertex -45.8333 -31 3
      vertex -48.8333 -2 3
      vertex -48.8333 -31 3
    endloop
  endfacet
  facet normal 0 0 1
    outer loop
      vertex -45.8333 -17 3
      vertex -48.8333 -2 3
      vertex -45.8333 -31 3
    endloop
  endfacet
  facet normal 0 0 1
    outer loop
      vertex -40.8333 -17 3
      vertex -48.8333 -2 3
      vertex -45.8333 -17 3
    endloop
  endfacet
  facet normal 0 0 1
    outer loop
      vertex -37.8333 -2 3
      vertex -48.8333 -2 3
      vertex -40.8333 -17 3
    endloop
  endfacet
  facet normal 0 0 1
    outer loop
      vertex -37.8333 -31 3
      vertex -40.8333 -17 3
      vertex -40.8333 -31 3
    endloop
  endfacet
  facet normal 0 0 1
    outer loop
      vertex -37.8333 -2 3
      vertex -40.8333 -17 3
      vertex -37.8333 -31 3
    endloop
  endfacet
  facet normal 0 0 1
    outer loop
      vertex 65.7574 -4.24264 3
      vertex 60.2102 2 3
      vertex 60.2102 -2 3
    endloop
  endfacet
  facet normal 0 0 1
    outer loop
      vertex 60.2102 -2 3
      vertex 60.2102 2 3
      vertex 48.8333 2 3
    endloop
  endfacet
  facet normal 0 0 1
    outer loop
      vertex -2.5 -31 3
      vertex -5.5 -2 3
      vertex -5.5 -31 3
    endloop
  endfacet
  facet normal 0 0 1
    outer loop
      vertex -2.5 -17 3
      vertex -5.5 -2 3
      vertex -2.5 -31 3
    endloop
  endfacet
  facet normal 0 0 1
    outer loop
      vertex 2.5 -17 3
      vertex -5.5 -2 3
      vertex -2.5 -17 3
    endloop
  endfacet
  facet normal 0 0 1
    outer loop
      vertex 5.5 -2 3
      vertex -5.5 -2 3
      vertex 2.5 -17 3
    endloop
  endfacet
  facet normal 0 0 1
    outer loop
      vertex 5.5 -31 3
      vertex 2.5 -17 3
      vertex 2.5 -31 3
    endloop
  endfacet
  facet normal 0 0 1
    outer loop
      vertex 5.5 -2 3
      vertex 2.5 -17 3
      vertex 5.5 -31 3
    endloop
  endfacet
  facet normal 0 0 1
    outer loop
      vertex 60.2102 -2 3
      vertex 48.8333 2 3
      vertex 37.8333 2 3
    endloop
  endfacet
  facet normal 0 0 1
    outer loop
      vertex 60.2102 -2 3
      vertex 37.8333 2 3
      vertex 5.5 2 3
    endloop
  endfacet
  facet normal 0 0 1
    outer loop
      vertex 40.8333 -31 3
      vertex 37.8333 -2 3
      vertex 37.8333 -31 3
    endloop
  endfacet
  facet normal 0 0 1
    outer loop
      vertex 40.8333 -17 3
      vertex 37.8333 -2 3
      vertex 40.8333 -31 3
    endloop
  endfacet
  facet normal 0 0 1
    outer loop
      vertex 45.8333 -17 3
      vertex 37.8333 -2 3
      vertex 40.8333 -17 3
    endloop
  endfacet
  facet normal 0 0 1
    outer loop
      vertex 48.8333 -2 3
      vertex 37.8333 -2 3
      vertex 45.8333 -17 3
    endloop
  endfacet
  facet normal 0 0 1
    outer loop
      vertex 48.8333 -31 3
      vertex 45.8333 -17 3
      vertex 45.8333 -31 3
    endloop
  endfacet
  facet normal 0 0 1
    outer loop
      vertex 48.8333 -2 3
      vertex 45.8333 -17 3
      vertex 48.8333 -31 3
    endloop
  endfacet
  facet normal 0 0 1
    outer loop
      vertex -65.7574 4.24264 3
      vertex -65.7574 -4.24264 3
      vertex -61.9098 -5.87785 3
    endloop
  endfacet
  facet normal 0 0 1
    outer loop
      vertex -65.7574 4.24264 3
      vertex -61.9098 -5.87785 3
      vertex -60.8645 -4.06737 3
    endloop
  endfacet
  facet normal 0 0 1
    outer loop
      vertex 60.8645 -4.06737 3
      vertex 60.2102 -2 3
      vertex 60.2185 -2.07912 3
    endloop
  endfacet
  facet normal 0 0 1
    outer loop
      vertex 61.9098 -5.87785 3
      vertex 60.2102 -2 3
      vertex 60.8645 -4.06737 3
    endloop
  endfacet
  facet normal 0 0 1
    outer loop
      vertex 63.3087 -7.43145 3
      vertex 60.2102 -2 3
      vertex 61.9098 -5.87785 3
    endloop
  endfacet
  facet normal 0 0 1
    outer loop
      vertex 65 -8.66025 3
      vertex 60.2102 -2 3
      vertex 63.3087 -7.43145 3
    endloop
  endfacet
  facet normal 0 0 1
    outer loop
      vertex 66.9098 -9.51056 3
      vertex 60.2102 -2 3
      vertex 65 -8.66025 3
    endloop
  endfacet
  facet normal 0 0 1
    outer loop
      vertex 68.9547 -9.94522 3
      vertex 60.2102 -2 3
      vertex 66.9098 -9.51056 3
    endloop
  endfacet
  facet normal 0 0 1
    outer loop
      vertex 71.0453 -9.94522 3
      vertex 60.2102 -2 3
      vertex 68.9547 -9.94522 3
    endloop
  endfacet
  facet normal 0 0 1
    outer loop
      vertex 73.0902 -9.51056 3
      vertex 60.2102 -2 3
      vertex 71.0453 -9.94522 3
    endloop
  endfacet
  facet normal 0 0 1
    outer loop
      vertex 75 -8.66025 3
      vertex 60.2102 -2 3
      vertex 73.0902 -9.51056 3
    endloop
  endfacet
  facet normal 0 0 1
    outer loop
      vertex 65.7574 -4.24264 3
      vertex 60.2102 -2 3
      vertex 75 -8.66025 3
    endloop
  endfacet
  facet normal 0 0 1
    outer loop
      vertex -65.7574 4.24264 3
      vertex -60.8645 -4.06737 3
      vertex -60.2185 -2.07912 3
    endloop
  endfacet
  facet normal 0 0 1
    outer loop
      vertex 74.2426 4.24264 3
      vertex 79.7815 -2.07912 3
      vertex 80 0 3
    endloop
  endfacet
  facet normal 0 0 1
    outer loop
      vertex -65.7574 4.24264 3
      vertex -60.2185 -2.07912 3
      vertex -60.2102 -2 3
    endloop
  endfacet
  facet normal 0 0 1
    outer loop
      vertex 37.8333 31 3
      vertex 40.8333 17 3
      vertex 40.8333 31 3
    endloop
  endfacet
  facet normal 0 0 1
    outer loop
      vertex 61.9098 5.87785 3
      vertex 60.8645 4.06737 3
      vertex 78.0902 5.87785 3
    endloop
  endfacet
  facet normal 0 0 1
    outer loop
      vertex 63.3087 7.43145 3
      vertex 61.9098 5.87785 3
      vertex 76.6913 7.43145 3
    endloop
  endfacet
  facet normal 0 0 1
    outer loop
      vertex 65 8.66025 3
      vertex 63.3087 7.43145 3
      vertex 75 8.66025 3
    endloop
  endfacet
  facet normal 0 0 1
    outer loop
      vertex 66.9098 9.51056 3
      vertex 65 8.66025 3
      vertex 73.0902 9.51056 3
    endloop
  endfacet
  facet normal 0 0 1
    outer loop
      vertex -40.8333 31 3
      vertex -40.8333 17 3
      vertex -37.8333 31 3
    endloop
  endfacet
  facet normal 0 0 1
    outer loop
      vertex 71.0453 9.94522 3
      vertex 66.9098 9.51056 3
      vertex 73.0902 9.51056 3
    endloop
  endfacet
  facet normal 0 0 1
    outer loop
      vertex 73.0902 9.51056 3
      vertex 65 8.66025 3
      vertex 75 8.66025 3
    endloop
  endfacet
  facet normal 0 0 1
    outer loop
      vertex 45.8333 31 3
      vertex 45.8333 17 3
      vertex 48.8333 31 3
    endloop
  endfacet
  facet normal 0 0 1
    outer loop
      vertex 75 8.66025 3
      vertex 63.3087 7.43145 3
      vertex 76.6913 7.43145 3
    endloop
  endfacet
  facet normal 0 0 1
    outer loop
      vertex 2.5 31 3
      vertex 2.5 17 3
      vertex 5.5 31 3
    endloop
  endfacet
  facet normal 0 0 1
    outer loop
      vertex 76.6913 7.43145 3
      vertex 61.9098 5.87785 3
      vertex 78.0902 5.87785 3
    endloop
  endfacet
  facet normal 0 0 1
    outer loop
      vertex -63.3087 7.43145 3
      vertex -65 8.66025 3
      vertex -74.2426 4.24264 3
    endloop
  endfacet
  facet normal 0 0 1
    outer loop
      vertex 74.2426 4.24264 3
      vertex 80 0 3
      vertex 79.7815 2.07912 3
    endloop
  endfacet
  facet normal 0 0 1
    outer loop
      vertex 40.8333 17 3
      vertex 37.8333 2 3
      vertex 48.8333 2 3
    endloop
  endfacet
  facet normal 0 0 1
    outer loop
      vertex 74.2426 4.24264 3
      vertex 79.1355 -4.06737 3
      vertex 79.7815 -2.07912 3
    endloop
  endfacet
  facet normal 0 0 1
    outer loop
      vertex 40.8333 17 3
      vertex 48.8333 2 3
      vertex 45.8333 17 3
    endloop
  endfacet
  facet normal 0 0 1
    outer loop
      vertex 74.2426 4.24264 3
      vertex 74.2426 -4.24264 3
      vertex 79.1355 -4.06737 3
    endloop
  endfacet
  facet normal 0 0 1
    outer loop
      vertex 37.8333 31 3
      vertex 37.8333 2 3
      vertex 40.8333 17 3
    endloop
  endfacet
  facet normal 0 0 1
    outer loop
      vertex -5.5 31 3
      vertex -2.5 17 3
      vertex -2.5 31 3
    endloop
  endfacet
  facet normal 0 0 1
    outer loop
      vertex -65.7574 -4.24264 3
      vertex -68.9547 -9.94522 3
      vertex -66.9098 -9.51056 3
    endloop
  endfacet
  facet normal 0 0 1
    outer loop
      vertex -65.7574 4.24264 3
      vertex -60.2185 2.07912 3
      vertex -60.8645 4.06737 3
    endloop
  endfacet
  facet normal 0 0 1
    outer loop
      vertex -5.5 31 3
      vertex -5.5 2 3
      vertex -2.5 17 3
    endloop
  endfacet
  facet normal 0 0 1
    outer loop
      vertex -65.7574 4.24264 3
      vertex -60.2102 2 3
      vertex -60.2185 2.07912 3
    endloop
  endfacet
  facet normal 0 0 1
    outer loop
      vertex -2.5 17 3
      vertex 5.5 2 3
      vertex 2.5 17 3
    endloop
  endfacet
  facet normal 0 0 1
    outer loop
      vertex -60.8645 4.06737 3
      vertex -61.9098 5.87785 3
      vertex -65.7574 4.24264 3
    endloop
  endfacet
  facet normal 0 0 1
    outer loop
      vertex -68.9547 9.94522 3
      vertex -71.0453 9.94522 3
      vertex -79.7815 2.07912 3
    endloop
  endfacet
  facet normal 0 0 1
    outer loop
      vertex -2.5 17 3
      vertex -5.5 2 3
      vertex 5.5 2 3
    endloop
  endfacet
  facet normal 0 0 1
    outer loop
      vertex 5.5 2 3
      vertex 5.5 31 3
      vertex 2.5 17 3
    endloop
  endfacet
  facet normal 0 0 1
    outer loop
      vertex -60.2102 2 3
      vertex 48.8333 -2 3
      vertex 60.2102 -2 3
    endloop
  endfacet
  facet normal 0 0 1
    outer loop
      vertex 60.2102 -2 3
      vertex -48.8333 2 3
      vertex -60.2102 2 3
    endloop
  endfacet
  facet normal 0 0 1
    outer loop
      vertex -60.2102 2 3
      vertex -37.8333 -2 3
      vertex -5.5 -2 3
    endloop
  endfacet
  facet normal 0 0 1
    outer loop
      vertex -60.2102 2 3
      vertex -5.5 -2 3
      vertex 5.5 -2 3
    endloop
  endfacet
  facet normal 0 0 1
    outer loop
      vertex -71.0453 9.94522 3
      vertex -73.0902 9.51056 3
      vertex -79.7815 2.07912 3
    endloop
  endfacet
  facet normal 0 0 1
    outer loop
      vertex -60.2102 2 3
      vertex -48.8333 -2 3
      vertex -37.8333 -2 3
    endloop
  endfacet
  facet normal 0 0 1
    outer loop
      vertex -65.7574 -4.24264 3
      vertex -66.9098 -9.51056 3
      vertex -65 -8.66025 3
    endloop
  endfacet
  facet normal 0 0 1
    outer loop
      vertex -37.8333 2 3
      vertex -37.8333 31 3
      vertex -40.8333 17 3
    endloop
  endfacet
  facet normal 0 0 1
    outer loop
      vertex -66.9098 9.51056 3
      vertex -79.7815 2.07912 3
      vertex -65 8.66025 3
    endloop
  endfacet
  facet normal 0 0 1
    outer loop
      vertex -74.2426 4.24264 3
      vertex -65 8.66025 3
      vertex -79.7815 2.07912 3
    endloop
  endfacet
  facet normal 0 0 1
    outer loop
      vertex 74.2426 -4.24264 3
      vertex 65.7574 -4.24264 3
      vertex 76.6913 -7.43145 3
    endloop
  endfacet
  facet normal 0 0 1
    outer loop
      vertex -65.7574 -4.24264 3
      vertex -65 -8.66025 3
      vertex -63.3087 -7.43145 3
    endloop
  endfacet
  facet normal 0 0 1
    outer loop
      vertex -75 8.66025 3
      vertex -79.7815 2.07912 3
      vertex -73.0902 9.51056 3
    endloop
  endfacet
  facet normal 0 0 1
    outer loop
      vertex -76.6913 7.43145 3
      vertex -79.7815 2.07912 3
      vertex -75 8.66025 3
    endloop
  endfacet
  facet normal 0 0 1
    outer loop
      vertex -78.0902 5.87785 3
      vertex -79.7815 2.07912 3
      vertex -76.6913 7.43145 3
    endloop
  endfacet
  facet normal 0 0 1
    outer loop
      vertex -79.1355 4.06737 3
      vertex -79.7815 2.07912 3
      vertex -78.0902 5.87785 3
    endloop
  endfacet
  facet normal 0 0 1
    outer loop
      vertex -68.9547 -9.94522 3
      vertex -74.2426 -4.24264 3
      vertex -71.0453 -9.94522 3
    endloop
  endfacet
  facet normal 0 0 1
    outer loop
      vertex -74.2426 4.24264 3
      vertex -61.9098 5.87785 3
      vertex -63.3087 7.43145 3
    endloop
  endfacet
  facet normal 0 0 1
    outer loop
      vertex -66.9098 9.51056 3
      vertex -68.9547 9.94522 3
      vertex -79.7815 2.07912 3
    endloop
  endfacet
  facet normal 0 0 1
    outer loop
      vertex -60.2102 2 3
      vertex 5.5 -2 3
      vertex 37.8333 -2 3
    endloop
  endfacet
  facet normal 0 0 1
    outer loop
      vertex -60.2102 2 3
      vertex 37.8333 -2 3
      vertex 48.8333 -2 3
    endloop
  endfacet
  facet normal 0 0 1
    outer loop
      vertex -65.7574 -4.24264 3
      vertex -74.2426 -4.24264 3
      vertex -68.9547 -9.94522 3
    endloop
  endfacet
  facet normal 0 0 1
    outer loop
      vertex -61.9098 -5.87785 3
      vertex -65.7574 -4.24264 3
      vertex -63.3087 -7.43145 3
    endloop
  endfacet
  facet normal 0 0 1
    outer loop
      vertex 76.6913 -7.43145 3
      vertex 65.7574 -4.24264 3
      vertex 75 -8.66025 3
    endloop
  endfacet
  facet normal 0 0 1
    outer loop
      vertex 78.0902 5.87785 3
      vertex 60.8645 4.06737 3
      vertex 65.7574 4.24264 3
    endloop
  endfacet
  facet normal 0 0 1
    outer loop
      vertex 78.0902 5.87785 3
      vertex 74.2426 4.24264 3
      vertex 79.1355 4.06737 3
    endloop
  endfacet
  facet normal 0 0 1
    outer loop
      vertex 78.0902 5.87785 3
      vertex 65.7574 4.24264 3
      vertex 74.2426 4.24264 3
    endloop
  endfacet
  facet normal 0 0 1
    outer loop
      vertex 79.1355 -4.06737 3
      vertex 74.2426 -4.24264 3
      vertex 78.0902 -5.87785 3
    endloop
  endfacet
  facet normal 0 0 1
    outer loop
      vertex 68.9547 9.94522 3
      vertex 66.9098 9.51056 3
      vertex 71.0453 9.94522 3
    endloop
  endfacet
  facet normal 0 0 1
    outer loop
      vertex 74.2426 4.24264 3
      vertex 79.7815 2.07912 3
      vertex 79.1355 4.06737 3
    endloop
  endfacet
  facet normal 0 0 1
    outer loop
      vertex -60.2102 2 3
      vertex -60.2102 -2 3
      vertex -48.8333 -2 3
    endloop
  endfacet
  facet normal 0 0 1
    outer loop
      vertex -65.7574 4.24264 3
      vertex -60.2102 -2 3
      vertex -60.2102 2 3
    endloop
  endfacet
  facet normal 0 0 1
    outer loop
      vertex 48.8333 2 3
      vertex 48.8333 31 3
      vertex 45.8333 17 3
    endloop
  endfacet
  facet normal 0 0 1
    outer loop
      vertex -48.8333 31 3
      vertex -45.8333 17 3
      vertex -45.8333 31 3
    endloop
  endfacet
  facet normal 0 0 1
    outer loop
      vertex -45.8333 17 3
      vertex -37.8333 2 3
      vertex -40.8333 17 3
    endloop
  endfacet
  facet normal 0 0 1
    outer loop
      vertex -45.8333 17 3
      vertex -48.8333 2 3
      vertex -37.8333 2 3
    endloop
  endfacet
  facet normal 0 0 1
    outer loop
      vertex -48.8333 31 3
      vertex -48.8333 2 3
      vertex -45.8333 17 3
    endloop
  endfacet
  facet normal 0 0 1
    outer loop
      vertex 74.2426 -4.24264 3
      vertex 76.6913 -7.43145 3
      vertex 78.0902 -5.87785 3
    endloop
  endfacet
  facet normal 0 0 1
    outer loop
      vertex -74.2426 -4.24264 3
      vertex -74.2426 4.24264 3
      vertex -79.7815 2.07912 3
    endloop
  endfacet
  facet normal 0 0.707107 0.707107
    outer loop
      vertex -48.8333 -31 3
      vertex -48.8333 -34 6
      vertex -45.8333 -34 6
    endloop
  endfacet
  facet normal 0 0.707107 0.707107
    outer loop
      vertex -45.8333 -31 3
      vertex -48.8333 -31 3
      vertex -45.8333 -34 6
    endloop
  endfacet
  facet normal 0 0 1
    outer loop
      vertex -45.8333 -37 6
      vertex -45.8333 -34 6
      vertex -48.8333 -34 6
    endloop
  endfacet
  facet normal 0 0 1
    outer loop
      vertex -48.8333 -37 6
      vertex -45.8333 -37 6
      vertex -48.8333 -34 6
    endloop
  endfacet
  facet normal 0 -1 0
    outer loop
      vertex -48.8333 -37 6
      vertex -48.8333 -37 -3
      vertex -45.8333 -37 -3
    endloop
  endfacet
  facet normal 0 -1 0
    outer loop
      vertex -45.8333 -37 6
      vertex -48.8333 -37 6
      vertex -45.8333 -37 -3
    endloop
  endfacet
  facet normal 0 -1 0
    outer loop
      vertex -40.8333 -37 6
      vertex -40.8333 -37 -3
      vertex -37.8333 -37 -3
    endloop
  endfacet
  facet normal 0 -1 0
    outer loop
      vertex -37.8333 -37 6
      vertex -40.8333 -37 6
      vertex -37.8333 -37 -3
    endloop
  endfacet
  facet normal 0 0 1
    outer loop
      vertex -37.8333 -37 6
      vertex -37.8333 -34 6
      vertex -40.8333 -34 6
    endloop
  endfacet
  facet normal 0 0 1
    outer loop
      vertex -40.8333 -37 6
      vertex -37.8333 -37 6
      vertex -40.8333 -34 6
    endloop
  endfacet
  facet normal 0 0.707107 0.707107
    outer loop
      vertex -40.8333 -31 3
      vertex -40.8333 -34 6
      vertex -37.8333 -34 6
    endloop
  endfacet
  facet normal 0 0.707107 0.707107
    outer loop
      vertex -37.8333 -31 3
      vertex -40.8333 -31 3
      vertex -37.8333 -34 6
    endloop
  endfacet
  facet normal 0 0.707107 0.707107
    outer loop
      vertex -5.5 -31 3
      vertex -5.5 -34 6
      vertex -2.5 -34 6
    endloop
  endfacet
  facet normal 0 0.707107 0.707107
    outer loop
      vertex -2.5 -31 3
      vertex -5.5 -31 3
      vertex -2.5 -34 6
    endloop
  endfacet
  facet normal 0 0 1
    outer loop
      vertex -2.5 -37 6
      vertex -2.5 -34 6
      vertex -5.5 -34 6
    endloop
  endfacet
  facet normal 0 0 1
    outer loop
      vertex -5.5 -37 6
      vertex -2.5 -37 6
      vertex -5.5 -34 6
    endloop
  endfacet
  facet normal 0 -1 0
    outer loop
      vertex -5.5 -37 6
      vertex -5.5 -37 -3
      vertex -2.5 -37 -3
    endloop
  endfacet
  facet normal 0 -1 0
    outer loop
      vertex -2.5 -37 6
      vertex -5.5 -37 6
      vertex -2.5 -37 -3
    endloop
  endfacet
  facet normal 0 -1 0
    outer loop
      vertex 2.5 -37 6
      vertex 2.5 -37 -3
      vertex 5.5 -37 -3
    endloop
  endfacet
  facet normal 0 -1 0
    outer loop
      vertex 5.5 -37 6
      vertex 2.5 -37 6
      vertex 5.5 -37 -3
    endloop
  endfacet
  facet normal 0 0 1
    outer loop
      vertex 5.5 -37 6
      vertex 5.5 -34 6
      vertex 2.5 -34 6
    endloop
  endfacet
  facet normal 0 0 1
    outer loop
      vertex 2.5 -37 6
      vertex 5.5 -37 6
      vertex 2.5 -34 6
    endloop
  endfacet
  facet normal 0 0.707107 0.707107
    outer loop
      vertex 2.5 -31 3
      vertex 2.5 -34 6
      vertex 5.5 -34 6
    endloop
  endfacet
  facet normal 0 0.707107 0.707107
    outer loop
      vertex 5.5 -31 3
      vertex 2.5 -31 3
      vertex 5.5 -34 6
    endloop
  endfacet
  facet normal 0 0.707107 0.707107
    outer loop
      vertex 37.8333 -31 3
      vertex 37.8333 -34 6
      vertex 40.8333 -34 6
    endloop
  endfacet
  facet normal 0 0.707107 0.707107
    outer loop
      vertex 40.8333 -31 3
      vertex 37.8333 -31 3
      vertex 40.8333 -34 6
    endloop
  endfacet
  facet normal 0 0 1
    outer loop
      vertex 40.8333 -37 6
      vertex 40.8333 -34 6
      vertex 37.8333 -34 6
    endloop
  endfacet
  facet normal 0 0 1
    outer loop
      vertex 37.8333 -37 6
      vertex 40.8333 -37 6
      vertex 37.8333 -34 6
    endloop
  endfacet
  facet normal 0 -1 0
    outer loop
      vertex 37.8333 -37 6
      vertex 37.8333 -37 -3
      vertex 40.8333 -37 -3
    endloop
  endfacet
  facet normal 0 -1 0
    outer loop
      vertex 40.8333 -37 6
      vertex 37.8333 -37 6
      vertex 40.8333 -37 -3
    endloop
  endfacet
  facet normal 0 -1 0
    outer loop
      vertex 45.8333 -37 6
      vertex 45.8333 -37 -3
      vertex 48.8333 -37 -3
    endloop
  endfacet
  facet normal 0 -1 0
    outer loop
      vertex 48.8333 -37 6
      vertex 45.8333 -37 6
      vertex 48.8333 -37 -3
    endloop
  endfacet
  facet normal 0 0 1
    outer loop
      vertex 48.8333 -37 6
      vertex 48.8333 -34 6
      vertex 45.8333 -34 6
    endloop
  endfacet
  facet normal 0 0 1
    outer loop
      vertex 45.8333 -37 6
      vertex 48.8333 -37 6
      vertex 45.8333 -34 6
    endloop
  endfacet
  facet normal 0 0.707107 0.707107
    outer loop
      vertex 45.8333 -31 3
      vertex 45.8333 -34 6
      vertex 48.8333 -34 6
    endloop
  endfacet
  facet normal 0 0.707107 0.707107
    outer loop
      vertex 48.8333 -31 3
      vertex 45.8333 -31 3
      vertex 48.8333 -34 6
    endloop
  endfacet
  facet normal 0 -0.707107 0.707107
    outer loop
      vertex 45.8333 34 6
      vertex 45.8333 31 3
      vertex 48.8333 31 3
    endloop
  endfacet
  facet normal 0 -0.707107 0.707107
    outer loop
      vertex 48.8333 34 6
      vertex 45.8333 34 6
      vertex 48.8333 31 3
    endloop
  endfacet
  facet normal 0 0 1
    outer loop
      vertex 48.8333 34 6
      vertex 48.8333 37 6
      vertex 45.8333 37 6
    endloop
  endfacet
  facet normal 0 0 1
    outer loop
      vertex 45.8333 34 6
      vertex 48.8333 34 6
      vertex 45.8333 37 6
    endloop
  endfacet
  facet normal 0 1 0
    outer loop
      vertex 48.8333 37 6
      vertex 48.8333 37 -3
      vertex 45.8333 37 6
    endloop
  endfacet
  facet normal 0 1 0
    outer loop
      vertex 45.8333 37 6
      vertex 48.8333 37 -3
      vertex 45.8333 37 -3
    endloop
  endfacet
  facet normal 0 1 0
    outer loop
      vertex 40.8333 37 6
      vertex 40.8333 37 -3
      vertex 37.8333 37 6
    endloop
  endfacet
  facet normal 0 1 0
    outer loop
      vertex 37.8333 37 6
      vertex 40.8333 37 -3
      vertex 37.8333 37 -3
    endloop
  endfacet
  facet normal 0 -0.707107 0.707107
    outer loop
      vertex 37.8333 34 6
      vertex 37.8333 31 3
      vertex 40.8333 31 3
    endloop
  endfacet
  facet normal 0 -0.707107 0.707107
    outer loop
      vertex 40.8333 34 6
      vertex 37.8333 34 6
      vertex 40.8333 31 3
    endloop
  endfacet
  facet normal 0 0 1
    outer loop
      vertex 40.8333 34 6
      vertex 40.8333 37 6
      vertex 37.8333 37 6
    endloop
  endfacet
  facet normal 0 0 1
    outer loop
      vertex 37.8333 34 6
      vertex 40.8333 34 6
      vertex 37.8333 37 6
    endloop
  endfacet
  facet normal 0 -0.707107 0.707107
    outer loop
      vertex 2.5 34 6
      vertex 2.5 31 3
      vertex 5.5 31 3
    endloop
  endfacet
  facet normal 0 -0.707107 0.707107
    outer loop
      vertex 5.5 34 6
      vertex 2.5 34 6
      vertex 5.5 31 3
    endloop
  endfacet
  facet normal 0 0 1
    outer loop
      vertex 5.5 34 6
      vertex 5.5 37 6
      vertex 2.5 37 6
    endloop
  endfacet
  facet normal 0 0 1
    outer loop
      vertex 2.5 34 6
      vertex 5.5 34 6
      vertex 2.5 37 6
    endloop
  endfacet
  facet normal 0 1 0
    outer loop
      vertex 5.5 37 6
      vertex 5.5 37 -3
      vertex 2.5 37 6
    endloop
  endfacet
  facet normal 0 1 0
    outer loop
      vertex 2.5 37 6
      vertex 5.5 37 -3
      vertex 2.5 37 -3
    endloop
  endfacet
  facet normal 0 1 0
    outer loop
      vertex -2.5 37 6
      vertex -2.5 37 -3
      vertex -5.5 37 6
    endloop
  endfacet
  facet normal 0 1 0
    outer loop
      vertex -5.5 37 6
      vertex -2.5 37 -3
      vertex -5.5 37 -3
    endloop
  endfacet
  facet normal 0 -0.707107 0.707107
    outer loop
      vertex -5.5 34 6
      vertex -5.5 31 3
      vertex -2.5 31 3
    endloop
  endfacet
  facet normal 0 -0.707107 0.707107
    outer loop
      vertex -2.5 34 6
      vertex -5.5 34 6
      vertex -2.5 31 3
    endloop
  endfacet
  facet normal 0 0 1
    outer loop
      vertex -2.5 34 6
      vertex -2.5 37 6
      vertex -5.5 37 6
    endloop
  endfacet
  facet normal 0 0 1
    outer loop
      vertex -5.5 34 6
      vertex -2.5 34 6
      vertex -5.5 37 6
    endloop
  endfacet
  facet normal 0 -0.707107 0.707107
    outer loop
      vertex -40.8333 34 6
      vertex -40.8333 31 3
      vertex -37.8333 31 3
    endloop
  endfacet
  facet normal 0 -0.707107 0.707107
    outer loop
      vertex -37.8333 34 6
      vertex -40.8333 34 6
      vertex -37.8333 31 3
    endloop
  endfacet
  facet normal 0 0 1
    outer loop
      vertex -37.8333 34 6
      vertex -37.8333 37 6
      vertex -40.8333 37 6
    endloop
  endfacet
  facet normal 0 0 1
    outer loop
      vertex -40.8333 34 6
      vertex -37.8333 34 6
      vertex -40.8333 37 6
    endloop
  endfacet
  facet normal 0 1 0
    outer loop
      vertex -37.8333 37 6
      vertex -37.8333 37 -3
      vertex -40.8333 37 6
    endloop
  endfacet
  facet normal 0 1 0
    outer loop
      vertex -40.8333 37 6
      vertex -37.8333 37 -3
      vertex -40.8333 37 -3
    endloop
  endfacet
  facet normal 0 1 0
    outer loop
      vertex -45.8333 37 6
      vertex -45.8333 37 -3
      vertex -48.8333 37 6
    endloop
  endfacet
  facet normal 0 1 0
    outer loop
      vertex -48.8333 37 6
      vertex -45.8333 37 -3
      vertex -48.8333 37 -3
    endloop
  endfacet
  facet normal 0 -0.707107 0.707107
    outer loop
      vertex -48.8333 34 6
      vertex -48.8333 31 3
      vertex -45.8333 31 3
    endloop
  endfacet
  facet normal 0 -0.707107 0.707107
    outer loop
      vertex -45.8333 34 6
      vertex -48.8333 34 6
      vertex -45.8333 31 3
    endloop
  endfacet
  facet normal 0 0 1
    outer loop
      vertex -45.8333 34 6
      vertex -45.8333 37 6
      vertex -48.8333 37 6
    endloop
  endfacet
  facet normal 0 0 1
    outer loop
      vertex -48.8333 34 6
      vertex -45.8333 34 6
      vertex -48.8333 37 6
    endloop
  endfacet
endsolid OpenSCAD_Model
