G04 #@! TF.GenerationSoftware,KiCad,Pcbnew,(5.0.0)*
G04 #@! TF.CreationDate,2018-07-31T15:29:21+01:00*
G04 #@! TF.ProjectId,uv_led,75765F6C65642E6B696361645F706362,rev?*
G04 #@! TF.SameCoordinates,Original*
G04 #@! TF.FileFunction,Legend,Top*
G04 #@! TF.FilePolarity,Positive*
%FSLAX46Y46*%
G04 Gerber Fmt 4.6, Leading zero omitted, Abs format (unit mm)*
G04 Created by KiCad (PCBNEW (5.0.0)) date 07/31/18 15:29:21*
%MOMM*%
%LPD*%
G01*
G04 APERTURE LIST*
%ADD10C,0.300000*%
%ADD11C,0.150000*%
%ADD12C,0.120000*%
G04 APERTURE END LIST*
D10*
X145428571Y-97107142D02*
X146571428Y-97107142D01*
X151428571Y-97107142D02*
X152571428Y-97107142D01*
X152000000Y-97678571D02*
X152000000Y-96535714D01*
D11*
G04 #@! TO.C,D1*
X148590000Y-94780100D02*
X148790660Y-94780100D01*
X148590000Y-94780100D02*
X148389340Y-94780100D01*
X148490940Y-93179900D02*
X148389340Y-93179900D01*
X148389340Y-93179900D02*
X148790660Y-93179900D01*
D12*
G04 #@! TO.C,J1*
X148590000Y-87690000D02*
X151190000Y-87690000D01*
X151190000Y-87690000D02*
X151190000Y-85030000D01*
X151190000Y-85030000D02*
X148590000Y-85030000D01*
X148590000Y-85030000D02*
X148590000Y-87690000D01*
X147320000Y-87690000D02*
X145990000Y-87690000D01*
X145990000Y-87690000D02*
X145990000Y-86360000D01*
G04 #@! TO.C,D1*
D11*
X147950964Y-91333580D02*
X147950964Y-90333580D01*
X148189060Y-90333580D01*
X148331917Y-90381200D01*
X148427155Y-90476438D01*
X148474774Y-90571676D01*
X148522393Y-90762152D01*
X148522393Y-90905009D01*
X148474774Y-91095485D01*
X148427155Y-91190723D01*
X148331917Y-91285961D01*
X148189060Y-91333580D01*
X147950964Y-91333580D01*
X149474774Y-91333580D02*
X148903345Y-91333580D01*
X149189060Y-91333580D02*
X149189060Y-90333580D01*
X149093821Y-90476438D01*
X148998583Y-90571676D01*
X148903345Y-90619295D01*
G04 #@! TO.C,J1*
X144442380Y-86693333D02*
X145156666Y-86693333D01*
X145299523Y-86740952D01*
X145394761Y-86836190D01*
X145442380Y-86979047D01*
X145442380Y-87074285D01*
X145442380Y-85693333D02*
X145442380Y-86264761D01*
X145442380Y-85979047D02*
X144442380Y-85979047D01*
X144585238Y-86074285D01*
X144680476Y-86169523D01*
X144728095Y-86264761D01*
G04 #@! TD*
M02*
